<svg width="230" height="179" viewBox="0 0 230 179" fill="none" xmlns="http://www.w3.org/2000/svg">
<path d="M203.421 9.28383C203.276 10.7353 202.61 12.0852 201.547 13.0843C200.484 14.0834 199.096 14.6643 197.638 14.7199H159.18C158.484 14.7373 157.791 14.6046 157.15 14.3306C156.509 14.0567 155.934 13.648 155.465 13.1323C154.996 12.6166 154.644 12.006 154.432 11.3419C154.219 10.6779 154.153 9.97596 154.236 9.28383L154.727 3.50073H204.057L203.421 9.28383Z" fill="#D6B066"/>
<path d="M126.852 16.195L112.105 184.396C111.878 186.458 112.094 188.544 112.737 190.516C113.38 192.488 114.435 194.3 115.833 195.832C117.231 197.364 118.94 198.58 120.844 199.401C122.749 200.221 124.807 200.626 126.881 200.589H196.885C201.291 200.506 205.515 198.814 208.759 195.831C212.003 192.848 214.043 188.78 214.494 184.396L229.212 16.195C229.439 14.1334 229.223 12.0474 228.58 10.0756C227.937 8.10386 226.882 6.29167 225.484 4.75969C224.086 3.2277 222.378 2.01107 220.473 1.19078C218.568 0.370498 216.51 -0.0346882 214.437 0.00232564H144.432C140.031 0.0920818 135.814 1.78779 132.576 4.77019C129.338 7.75258 127.302 11.8159 126.852 16.195Z" fill="#D6B066"/>
<g opacity="0.4">
<path d="M203.419 9.28456C203.274 10.7361 202.608 12.0859 201.545 13.085C200.482 14.0841 199.094 14.6651 197.636 14.7206H159.178C158.482 14.738 157.789 14.6053 157.148 14.3314C156.507 14.0574 155.932 13.6487 155.463 13.133C154.994 12.6173 154.642 12.0067 154.43 11.3427C154.217 10.6786 154.151 9.97669 154.234 9.28456L154.726 3.50146H204.055L203.419 9.28456Z" fill="black"/>
<path d="M126.852 16.195L112.105 184.396C111.878 186.458 112.094 188.544 112.737 190.516C113.38 192.488 114.435 194.3 115.833 195.832C117.231 197.364 118.94 198.58 120.844 199.401C122.749 200.221 124.807 200.626 126.881 200.589H196.885C201.291 200.506 205.515 198.814 208.759 195.831C212.003 192.848 214.043 188.78 214.494 184.396L229.212 16.195C229.439 14.1334 229.223 12.0474 228.58 10.0756C227.937 8.10386 226.882 6.29167 225.484 4.75969C224.086 3.2277 222.378 2.01107 220.473 1.19078C218.568 0.370498 216.51 -0.0346882 214.437 0.00232564H144.432C140.031 0.0920818 135.814 1.78779 132.576 4.77019C129.338 7.75258 127.302 11.8159 126.852 16.195Z" fill="#D6B066"/>
</g>
<path d="M139.835 3.47212H209.84C211.469 3.46267 213.082 3.79757 214.573 4.45497C216.064 5.11237 217.399 6.07747 218.491 7.28687C219.583 8.49626 220.407 9.92274 220.91 11.4729C221.412 13.023 221.581 14.6616 221.406 16.2817L206.717 184.483C206.322 187.937 204.696 191.133 202.136 193.486C199.576 195.838 196.254 197.19 192.779 197.293H122.862C121.232 197.302 119.619 196.967 118.128 196.31C116.637 195.652 115.302 194.687 114.21 193.478C113.118 192.268 112.294 190.842 111.792 189.292C111.289 187.742 111.12 186.103 111.296 184.483L126.014 16.2817C126.364 12.8304 127.961 9.62536 130.506 7.26728C133.05 4.90919 136.367 3.55989 139.835 3.47212Z" fill="#2E1F02"/>
<path opacity="0.3" d="M139.835 3.47212H209.84C211.469 3.46267 213.082 3.79757 214.573 4.45497C216.064 5.11237 217.399 6.07747 218.491 7.28687C219.583 8.49626 220.407 9.92274 220.91 11.4729C221.412 13.023 221.581 14.6616 221.406 16.2817L206.717 184.483C206.322 187.937 204.696 191.133 202.136 193.486C199.576 195.838 196.254 197.19 192.779 197.293H122.862C121.232 197.302 119.619 196.967 118.128 196.31C116.637 195.652 115.302 194.687 114.21 193.478C113.118 192.268 112.294 190.842 111.792 189.292C111.289 187.742 111.12 186.103 111.296 184.483L126.014 16.2817C126.364 12.8304 127.961 9.62536 130.506 7.26728C133.05 4.90919 136.367 3.55989 139.835 3.47212Z" fill="white"/>
<path d="M122.515 16.2819L107.797 184.483C107.575 186.544 107.794 188.628 108.439 190.598C109.083 192.568 110.139 194.378 111.536 195.909C112.933 197.44 114.64 198.656 116.542 199.478C118.445 200.3 120.5 200.708 122.572 200.676H192.577C196.981 200.587 201.202 198.892 204.444 195.91C207.687 192.928 209.729 188.865 210.186 184.483L224.875 16.2819C225.102 14.2204 224.886 12.1343 224.243 10.1625C223.6 8.19077 222.545 6.37858 221.147 4.8466C219.749 3.31461 218.041 2.09798 216.136 1.2777C214.231 0.457412 212.173 0.0522259 210.1 0.0892397H140.124C135.718 0.172019 131.494 1.86469 128.25 4.84775C125.006 7.8308 122.966 11.898 122.515 16.2819ZM125.898 16.2819C126.251 12.8112 127.865 9.59059 130.433 7.22987C133.002 4.86915 136.347 3.53229 139.835 3.47239H209.839C211.469 3.46294 213.082 3.79784 214.573 4.45524C216.064 5.11264 217.399 6.07774 218.491 7.28714C219.583 8.49653 220.407 9.92301 220.909 11.4731C221.412 13.0232 221.581 14.6619 221.406 16.2819L206.717 184.483C206.322 187.937 204.695 191.134 202.136 193.486C199.576 195.839 196.254 197.19 192.779 197.293H122.862C121.232 197.302 119.619 196.967 118.128 196.31C116.637 195.652 115.302 194.687 114.21 193.478C113.118 192.269 112.294 190.842 111.792 189.292C111.289 187.742 111.12 186.103 111.295 184.483L125.898 16.2819Z" fill="white"/>
<path d="M199.604 3.55859C199.331 5.91891 198.21 8.09971 196.449 9.69537C194.689 11.291 192.408 12.1929 190.033 12.2332H158.37C157.255 12.25 156.149 12.032 155.123 11.5934C154.098 11.1547 153.176 10.5053 152.418 9.68716C151.66 8.86906 151.082 7.9007 150.723 6.84485C150.364 5.789 150.23 4.66931 150.332 3.55859H199.662H199.604Z" fill="white"/>
<path d="M165.164 107.307L151.603 104.647C154.176 117.023 147.266 130.671 141.396 139.346C138.504 143.567 139.661 149.958 143.246 150.68L152.094 152.415C162.793 154.584 165.164 107.307 165.164 107.307Z" fill="#D6B066"/>
<path d="M170.543 108.378L139.43 102.276C134.567 101.305 130.287 98.4486 127.523 94.3308C124.76 90.2131 123.739 85.169 124.683 80.3008C125.648 75.4402 128.499 71.1596 132.612 68.3958C136.725 65.6321 141.765 64.6102 146.63 65.5539L177.743 71.655C182.605 72.6201 186.888 75.4697 189.657 79.5816C192.425 83.6936 193.454 88.7338 192.519 93.6018C191.547 98.4663 188.692 102.749 184.575 105.517C180.459 108.285 175.415 109.313 170.543 108.378Z" fill="#D6B066"/>
<path opacity="0.3" d="M170.543 108.378L139.43 102.276C134.567 101.305 130.287 98.4486 127.523 94.3308C124.76 90.2131 123.739 85.169 124.683 80.3008C125.648 75.4402 128.499 71.1596 132.612 68.3958C136.725 65.6321 141.765 64.6102 146.63 65.5539L177.743 71.655C182.605 72.6201 186.888 75.4697 189.657 79.5816C192.425 83.6936 193.454 88.7338 192.519 93.6018C191.547 98.4663 188.692 102.749 184.575 105.517C180.459 108.285 175.415 109.313 170.543 108.378Z" fill="black"/>
<path d="M85.8496 114.71L138.881 114.016C143.478 114.912 155.16 55.3751 150.447 54.4788L101.609 33.8042L85.8496 114.71Z" fill="#D6B066"/>
<path d="M98.0235 75.0958C93.6572 97.4186 88.1922 115.173 85.85 114.71C83.5079 114.247 85.156 95.7704 89.5512 73.4188C93.9464 51.0671 99.3825 33.3419 101.725 33.8045C104.067 34.2672 102.419 52.7441 98.0235 75.0958Z" fill="#D6B066"/>
<path opacity="0.3" d="M98.0235 75.0958C93.6572 97.4186 88.1922 115.173 85.85 114.71C83.5079 114.247 85.156 95.7704 89.5512 73.4188C93.9464 51.0671 99.3825 33.3419 101.725 33.8045C104.067 34.2672 102.419 52.7441 98.0235 75.0958Z" fill="black"/>
<path d="M84.7792 74.2573C85.8491 68.7922 91.3141 64.6572 93.9165 65.1488C96.5189 65.6404 97.7623 70.4982 96.8081 75.9633C95.8539 81.4283 92.7599 85.4475 90.1575 84.9559C87.5551 84.4644 83.7094 79.6355 84.7792 74.2573Z" fill="#D6B066"/>
<path d="M179.016 121.881L171.903 114.334C167.524 109.733 161.826 106.601 155.595 105.37L146.92 103.664C146.104 103.51 145.261 103.68 144.569 104.14C143.878 104.599 143.393 105.31 143.219 106.122C142.178 111.298 140.645 121.997 143.45 130.642C143.76 131.615 144.321 132.489 145.078 133.175C145.835 133.86 146.76 134.333 147.758 134.546L166.351 137.9C169.387 138.652 172.452 138.363 173.609 135.442L179.016 121.881Z" fill="#FFC0BA"/>
<path d="M174.939 140.59L206.948 183.009L210.129 146.546L179.016 121.881C179.016 121.881 165.512 127.664 174.939 140.59Z" fill="#FFC0BA"/>
<path d="M70.496 65.351L33.6577 33.8621L24.1445 47.886L70.496 65.351Z" fill="white"/>
<path d="M76.0474 80.561L31.6621 99.9344L26.6309 83.7706L76.0474 80.561Z" fill="white"/>
<path d="M58.2069 72.0599L5.81204 50.3733L0 71.337L58.2069 72.0599Z" fill="white"/>
</svg>
