<svg width="334" height="248" viewBox="0 0 334 248" fill="none" xmlns="http://www.w3.org/2000/svg">
<path d="M85.9992 211.21C88.2884 207.64 91.4518 204.714 95.1892 202.71C110.189 194.03 134.599 194.03 149.639 202.71C153.377 204.714 156.54 207.64 158.829 211.21H160.909V219.08C160.639 224.55 156.909 229.97 149.669 234.14C134.669 242.82 110.259 242.82 95.2192 234.14C87.9892 229.97 84.2192 224.55 83.9492 219.08V211.21H85.9992Z" fill="#D6B066" fill-opacity="0.19"/>
<path opacity="0.25" d="M85.9992 211.21C88.2884 207.64 91.4518 204.714 95.1892 202.71C110.189 194.03 134.599 194.03 149.639 202.71C153.377 204.714 156.54 207.64 158.829 211.21H160.909V219.08C160.639 224.55 156.909 229.97 149.669 234.14C134.669 242.82 110.259 242.82 95.2192 234.14C87.9892 229.97 84.2192 224.55 83.9492 219.08V211.21H85.9992Z" fill="black"/>
<path opacity="0.1" d="M122.369 196.2C132.219 196.2 142.079 198.37 149.599 202.71C153.337 204.714 156.5 207.64 158.789 211.21H160.869V219.08C160.599 224.55 156.869 229.97 149.629 234.14C142.109 238.48 132.249 240.65 122.399 240.65L122.369 196.2Z" fill="black"/>
<path opacity="0.1" d="M143.398 199.81C145.539 200.61 147.612 201.58 149.598 202.71C153.336 204.714 156.499 207.64 158.788 211.21H160.868V219.08C160.598 224.55 156.868 229.97 149.628 234.14C147.642 235.273 145.569 236.246 143.428 237.05L143.398 199.81Z" fill="black"/>
<path opacity="0.5" d="M101.349 199.81C99.2085 200.61 97.1352 201.58 95.1489 202.71C91.4114 204.714 88.2481 207.64 85.9589 211.21H83.8789V219.08C84.1489 224.55 87.8789 229.97 95.1489 234.14C97.1349 235.273 99.2082 236.246 101.349 237.05V199.81Z" fill="#D6B066" fill-opacity="0.19"/>
<path d="M149.599 195.5C164.599 204.18 164.599 218.26 149.599 226.93C136.439 234.53 116.139 235.48 101.189 229.78L100.589 229.55C98.7146 228.81 96.8964 227.935 95.1493 226.93C82.6193 219.7 80.5293 208.71 88.9093 200.22C90.7702 198.376 92.8687 196.789 95.1493 195.5C110.179 186.82 134.559 186.82 149.599 195.5Z" fill="#D6B066" fill-opacity="0.19"/>
<path opacity="0.2" d="M149.599 195.5C164.599 204.18 164.599 218.26 149.599 226.93C136.439 234.53 116.139 235.48 101.189 229.78L100.589 229.55C98.7146 228.81 96.8964 227.935 95.1493 226.93C82.6193 219.7 80.5293 208.71 88.9093 200.22C90.7702 198.376 92.8687 196.789 95.1493 195.5C110.179 186.82 134.559 186.82 149.599 195.5Z" fill="black"/>
<path opacity="0.5" d="M88.9093 200.22C87.2791 202.075 86.0759 204.265 85.3847 206.635C84.6936 209.006 84.5313 211.5 84.9093 213.94C86.2393 221.58 96.9093 228.01 100.619 229.55C98.7446 228.81 96.9264 227.935 95.1793 226.93C82.6193 219.7 80.5293 208.71 88.9093 200.22Z" fill="#F5F5F5"/>
<path opacity="0.5" d="M155.839 222.21C157.47 220.358 158.673 218.169 159.365 215.8C160.056 213.431 160.218 210.939 159.839 208.5C158.509 200.86 147.839 194.43 144.119 192.89C145.994 193.627 147.812 194.499 149.559 195.5C162.129 202.74 164.209 213.73 155.839 222.21Z" fill="#F5F5F5"/>
<path d="M147.688 225.8C161.688 217.73 161.688 204.65 147.688 196.58C133.688 188.51 111.058 188.51 97.0784 196.58C83.0984 204.65 83.0784 217.73 97.0784 225.8C111.078 233.87 133.718 233.87 147.688 225.8Z" fill="#D6B066" fill-opacity="0.19"/>
<path opacity="0.4" d="M147.688 225.8C161.688 217.73 161.688 204.65 147.688 196.58C133.688 188.51 111.058 188.51 97.0784 196.58C83.0984 204.65 83.0784 217.73 97.0784 225.8C111.078 233.87 133.718 233.87 147.688 225.8Z" fill="white"/>
<path opacity="0.2" d="M156.549 217.36C159.419 212.04 158.489 206.18 153.739 201.21C152.814 200.242 151.811 199.352 150.739 198.55C149.807 197.862 148.839 197.224 147.839 196.64C147.269 196.31 146.679 195.99 146.079 195.69C147.559 198.14 147.019 200.76 138.589 201.25C122.069 202.21 142.999 218 142.999 218C142.999 218 153.599 212.84 156.549 217.36Z" fill="white"/>
<path opacity="0.5" d="M154.849 213C157.319 212.72 158.549 210.18 157.589 207.31C156.629 204.44 153.839 202.31 151.359 202.63C148.879 202.95 147.659 205.45 148.619 208.32C149.579 211.19 152.369 213.28 154.849 213Z" fill="white"/>
<path d="M128.758 226.13C127.948 220.01 101.168 203.05 101.168 203.05C101.168 203.05 95.2284 200.67 97.1684 196.52C96.1836 197.087 95.229 197.704 94.3083 198.37C93.6883 198.817 93.1084 199.277 92.5684 199.75C84.5684 206.65 84.5684 215.75 92.5684 222.63C93.0984 223.1 93.6884 223.56 94.2984 224.01C95.1547 224.629 96.0425 225.203 96.9584 225.73C97.8759 226.274 98.8204 226.771 99.7883 227.22C100.568 227.59 101.378 227.94 102.208 228.22C103.038 228.5 103.858 228.84 104.718 229.12C107.329 229.974 110.004 230.616 112.718 231.04C113.318 231.14 113.918 231.23 114.518 231.3C117.171 231.643 119.844 231.81 122.518 231.8C125.791 231.801 129.059 231.534 132.288 231C132.288 231 127.998 230.16 128.758 226.13Z" fill="#D6B066" fill-opacity="0.19"/>
<path opacity="0.3" d="M128.758 226.13C127.948 220.01 101.168 203.05 101.168 203.05C101.168 203.05 95.2284 200.67 97.1684 196.52C96.1836 197.087 95.229 197.704 94.3083 198.37C93.6883 198.817 93.1084 199.277 92.5684 199.75C84.5684 206.65 84.5684 215.75 92.5684 222.63C93.0984 223.1 93.6884 223.56 94.2984 224.01C95.1547 224.629 96.0425 225.203 96.9584 225.73C97.8759 226.274 98.8204 226.771 99.7883 227.22C100.568 227.59 101.378 227.94 102.208 228.22C103.038 228.5 103.858 228.84 104.718 229.12C107.329 229.974 110.004 230.616 112.718 231.04C113.318 231.14 113.918 231.23 114.518 231.3C117.171 231.643 119.844 231.81 122.518 231.8C125.791 231.801 129.059 231.534 132.288 231C132.288 231 127.998 230.16 128.758 226.13Z" fill="white"/>
<path d="M103.518 200.3C93.5185 206.07 93.1285 215.3 102.298 221.3C102.688 221.55 103.098 221.81 103.528 222.05C113.938 228.05 130.808 228.05 141.228 222.05C151.648 216.05 151.638 206.29 141.228 200.28C140.808 200.04 140.368 199.8 139.918 199.58C129.448 194.3 113.508 194.54 103.518 200.3Z" fill="#D6B066" fill-opacity="0.19"/>
<path opacity="0.2" d="M103.518 200.3C93.5185 206.07 93.1285 215.3 102.298 221.3C102.688 221.55 103.098 221.81 103.528 222.05C113.938 228.05 130.808 228.05 141.228 222.05C151.648 216.05 151.638 206.29 141.228 200.28C140.808 200.04 140.368 199.8 139.918 199.58C129.448 194.3 113.508 194.54 103.518 200.3Z" fill="black"/>
<path d="M122.39 225.9C136.462 225.9 147.87 219.314 147.87 211.19C147.87 203.066 136.462 196.48 122.39 196.48C108.318 196.48 96.9102 203.066 96.9102 211.19C96.9102 219.314 108.318 225.9 122.39 225.9Z" fill="#D6B066" fill-opacity="0.19"/>
<path opacity="0.5" d="M122.39 225.9C136.462 225.9 147.87 219.314 147.87 211.19C147.87 203.066 136.462 196.48 122.39 196.48C108.318 196.48 96.9102 203.066 96.9102 211.19C96.9102 219.314 108.318 225.9 122.39 225.9Z" fill="black"/>
<path d="M104.368 204.89C114.318 199.14 130.458 199.14 140.368 204.89C144.438 207.24 146.838 210.18 147.578 213.24C146.838 216.29 144.438 219.24 140.368 221.59C130.418 227.34 114.278 227.34 104.368 221.59C100.298 219.24 97.8984 216.29 97.1484 213.24C97.8984 210.18 100.298 207.24 104.368 204.89Z" fill="#D6B066" fill-opacity="0.19"/>
<path opacity="0.35" d="M104.368 204.89C114.318 199.14 130.458 199.14 140.368 204.89C144.438 207.24 146.838 210.18 147.578 213.24C146.838 216.29 144.438 219.24 140.368 221.59C130.418 227.34 114.278 227.34 104.368 221.59C100.298 219.24 97.8984 216.29 97.1484 213.24C97.8984 210.18 100.298 207.24 104.368 204.89Z" fill="black"/>
<path d="M138.439 215.62C138.439 215.12 138.439 213.1 138.439 212.62C138.439 211.37 137.569 210.16 135.719 209.07H135.649C132.229 207.07 128.649 207.36 125.549 208.15C124.209 208.49 122.939 208.92 121.779 209.32C120.453 209.814 119.101 210.234 117.729 210.58C117.1 210.728 116.454 210.789 115.809 210.76C115.252 210.733 114.707 210.59 114.209 210.34L114.339 210.25L114.739 210.01C115.083 209.807 115.441 209.626 115.809 209.47C116.698 209.078 117.655 208.866 118.627 208.845C119.598 208.824 120.564 208.996 121.469 209.35L124.739 206.05V203.05C121.859 202.066 118.753 201.952 115.809 202.72C114.836 202.975 113.887 203.31 112.969 203.72L109.699 201.84L105.799 204.09V207.09L107.139 207.86C106.776 208.38 106.574 208.996 106.559 209.63C106.559 210.13 106.559 212.14 106.559 212.63C106.559 213.88 107.449 215.08 109.329 216.17C110.97 217.124 112.822 217.657 114.719 217.72C115.079 217.72 115.439 217.72 115.799 217.72C117.774 217.575 119.72 217.154 121.579 216.47L122.709 216.08L119.419 219.38V222.38C121.447 223.147 123.609 223.494 125.775 223.399C127.941 223.304 130.065 222.771 132.019 221.83L135.249 223.69L139.149 221.44V218.44L137.809 217.66C138.222 217.06 138.442 216.348 138.439 215.62ZM130.209 215.36C129.917 215.526 129.617 215.676 129.309 215.81C127.277 216.677 124.987 216.713 122.929 215.91C125.929 214.83 128.529 213.91 130.709 215.04L130.209 215.36Z" fill="#D6B066" fill-opacity="0.19"/>
<path d="M125.55 208.07C124.21 208.41 122.94 208.85 121.78 209.24C120.454 209.734 119.102 210.154 117.73 210.5C117.101 210.648 116.455 210.709 115.81 210.68C115.155 210.647 114.517 210.458 113.95 210.13C112.7 209.4 112.52 208.34 114.34 207.13L114.74 206.88C115.084 206.679 115.442 206.502 115.81 206.35C116.698 205.957 117.656 205.743 118.627 205.721C119.598 205.698 120.564 205.868 121.47 206.22L124.7 203C121.82 202.016 118.714 201.902 115.77 202.67C114.797 202.925 113.847 203.26 112.93 203.67L109.66 201.79L105.76 204.04L108.99 205.9C105.71 208.39 105.65 210.97 109.33 213.1C110.969 214.059 112.822 214.592 114.72 214.65C115.08 214.65 115.44 214.65 115.8 214.65C117.775 214.5 119.719 214.079 121.58 213.4C125.32 212.15 128.35 210.67 130.88 212.13C132.56 213.13 132.1 214.33 130.24 215.4C129.948 215.566 129.648 215.716 129.34 215.85C128.314 216.29 127.211 216.521 126.095 216.529C124.979 216.538 123.872 216.324 122.84 215.9L119.42 219.33C121.447 220.098 123.609 220.447 125.775 220.354C127.941 220.261 130.066 219.729 132.02 218.79L135.25 220.65L139.15 218.4L135.92 216.53C139.16 214.03 139.54 211.29 135.75 209.07H135.68C132.23 207 128.69 207.28 125.55 208.07Z" fill="#D6B066" fill-opacity="0.19"/>
<g opacity="0.3">
<path d="M125.55 208.07C124.21 208.41 122.94 208.85 121.78 209.24C120.454 209.734 119.102 210.154 117.73 210.5C117.101 210.648 116.455 210.709 115.81 210.68C115.155 210.647 114.517 210.458 113.95 210.13C112.7 209.4 112.52 208.34 114.34 207.13L114.74 206.88C115.084 206.679 115.442 206.502 115.81 206.35C116.698 205.957 117.656 205.743 118.627 205.721C119.598 205.698 120.564 205.868 121.47 206.22L124.7 203C121.82 202.016 118.714 201.902 115.77 202.67C114.797 202.925 113.847 203.26 112.93 203.67L109.66 201.79L105.76 204.04L108.99 205.9C105.71 208.39 105.65 210.97 109.33 213.1C110.969 214.059 112.822 214.592 114.72 214.65C115.08 214.65 115.44 214.65 115.8 214.65C117.775 214.5 119.719 214.079 121.58 213.4C125.32 212.15 128.35 210.67 130.88 212.13C132.56 213.13 132.1 214.33 130.24 215.4C129.948 215.566 129.648 215.716 129.34 215.85C128.314 216.29 127.211 216.521 126.095 216.529C124.979 216.538 123.872 216.324 122.84 215.9L119.42 219.33C121.447 220.098 123.609 220.447 125.775 220.354C127.941 220.261 130.066 219.729 132.02 218.79L135.25 220.65L139.15 218.4L135.92 216.53C139.16 214.03 139.54 211.29 135.75 209.07H135.68C132.23 207 128.69 207.28 125.55 208.07Z" fill="white"/>
</g>
<path opacity="0.45" d="M105.76 203.97L109.7 202.19L112.93 203.61L109.66 201.72L105.76 203.97Z" fill="#F5F5F5"/>
<path opacity="0.45" d="M115.318 202.75C118.095 202.187 120.965 202.283 123.698 203.03L121.428 206.24L124.698 203C121.673 201.948 118.396 201.861 115.318 202.75Z" fill="#F5F5F5"/>
<path opacity="0.45" d="M135.649 209H135.719C139.509 211.22 139.129 214 135.889 216.46C138.759 213.33 138.239 211.15 135.119 209.35C132.167 207.849 128.795 207.388 125.549 208.04C128.689 207.28 132.229 207 135.649 209Z" fill="#F5F5F5"/>
<path opacity="0.45" d="M135.889 216.5L138.359 218.4L135.219 220.61L139.119 218.36L135.889 216.5Z" fill="#F5F5F5"/>
<path opacity="0.45" d="M129.309 215.81C127.383 216.787 125.154 216.98 123.089 216.35L119.389 219.29L122.809 215.86C123.841 216.284 124.948 216.498 126.064 216.489C127.18 216.481 128.283 216.25 129.309 215.81Z" fill="#F5F5F5"/>
<path opacity="0.45" d="M117.69 210.5C116.933 210.808 116.114 210.929 115.301 210.852C114.488 210.776 113.705 210.504 113.02 210.06C111.9 209.06 112.62 208.06 114.3 207.15C112.48 208.34 112.66 209.4 113.91 210.15C114.477 210.478 115.115 210.666 115.77 210.7C116.416 210.722 117.062 210.655 117.69 210.5Z" fill="#F5F5F5"/>
<path opacity="0.45" d="M108.998 205.86C108.728 206.1 106.378 208.29 107.408 210.48C108.438 212.67 111.958 214.31 114.728 214.61C112.83 214.551 110.977 214.019 109.338 213.06C105.618 210.93 105.678 208.35 108.998 205.86Z" fill="#F5F5F5"/>
<path d="M81.5092 199.46C83.7961 195.882 86.9641 192.951 90.7092 190.95C105.709 182.27 130.119 182.27 145.149 190.95C148.89 192.957 152.057 195.886 154.349 199.46H156.419V207.32C156.139 212.79 152.419 218.21 145.169 222.39C130.169 231.07 105.759 231.07 90.7292 222.39C83.4992 218.21 79.7292 212.79 79.4492 207.32V199.46H81.5092Z" fill="#D6B066" fill-opacity="0.19"/>
<path opacity="0.25" d="M81.5092 199.46C83.7961 195.882 86.9641 192.951 90.7092 190.95C105.709 182.27 130.119 182.27 145.149 190.95C148.89 192.957 152.057 195.886 154.349 199.46H156.419V207.32C156.139 212.79 152.419 218.21 145.169 222.39C130.169 231.07 105.759 231.07 90.7292 222.39C83.4992 218.21 79.7292 212.79 79.4492 207.32V199.46H81.5092Z" fill="black"/>
<path opacity="0.1" d="M117.93 184.44C127.78 184.44 137.63 186.61 145.15 190.95C148.891 192.957 152.057 195.886 154.35 199.46H156.42V207.32C156.14 212.79 152.42 218.21 145.17 222.39C137.65 226.73 127.8 228.9 117.95 228.9L117.93 184.44Z" fill="black"/>
<path opacity="0.1" d="M139 188.05C141.141 188.848 143.215 189.818 145.2 190.95C148.941 192.957 152.108 195.887 154.4 199.46H156.47V207.32C156.19 212.79 152.47 218.21 145.22 222.39C143.235 223.522 141.161 224.492 139.02 225.29L139 188.05Z" fill="black"/>
<path opacity="0.5" d="M96.8997 188.05C94.7616 188.848 92.6916 189.818 90.7097 190.95C86.9645 192.952 83.7965 195.882 81.5097 199.46H79.4297V207.32C79.7097 212.79 83.4297 218.21 90.7097 222.39C92.6916 223.522 94.7616 224.492 96.8997 225.29V188.05Z" fill="#D6B066" fill-opacity="0.19"/>
<path d="M145.149 183.74C160.149 192.43 160.149 206.5 145.149 215.18C131.999 222.77 111.689 223.72 96.749 218.03L96.149 217.79C94.2754 217.052 92.4574 216.179 90.709 215.18C78.169 207.94 76.089 196.95 84.459 188.47C86.3164 186.625 88.4155 185.041 90.699 183.76C105.739 175.07 130.119 175.07 145.149 183.74Z" fill="#D6B066" fill-opacity="0.19"/>
<path opacity="0.2" d="M145.149 183.74C160.149 192.43 160.149 206.5 145.149 215.18C131.999 222.77 111.689 223.72 96.749 218.03L96.149 217.79C94.2754 217.052 92.4574 216.179 90.709 215.18C78.169 207.94 76.089 196.95 84.459 188.47C86.3164 186.625 88.4155 185.041 90.699 183.76C105.739 175.07 130.119 175.07 145.149 183.74Z" fill="black"/>
<path opacity="0.5" d="M84.459 188.47C82.8284 190.322 81.6249 192.511 80.9337 194.88C80.2425 197.249 80.0804 199.741 80.459 202.18C81.799 209.82 92.459 216.25 96.179 217.79C94.3055 217.052 92.4874 216.179 90.739 215.18C78.169 207.94 76.089 197 84.459 188.47Z" fill="#F5F5F5"/>
<path opacity="0.5" d="M151.39 210.46C153.022 208.607 154.227 206.417 154.918 204.046C155.61 201.674 155.771 199.18 155.39 196.74C154.06 189.1 143.39 182.67 139.68 181.13C141.554 181.87 143.373 182.745 145.12 183.75C157.69 191 159.77 202 151.39 210.46Z" fill="#F5F5F5"/>
<path d="M143.249 214C157.249 205.93 157.249 192.85 143.249 184.78C129.249 176.71 106.609 176.71 92.6391 184.78C78.6691 192.85 78.6391 205.93 92.6391 214C106.639 222.07 129.269 222.11 143.249 214Z" fill="#D6B066" fill-opacity="0.19"/>
<path opacity="0.4" d="M143.249 214C157.249 205.93 157.249 192.85 143.249 184.78C129.249 176.71 106.609 176.71 92.6391 184.78C78.6691 192.85 78.6391 205.93 92.6391 214C106.639 222.07 129.269 222.11 143.249 214Z" fill="white"/>
<path opacity="0.2" d="M152.1 205.6C154.98 200.28 154.04 194.42 149.29 189.45C148.365 188.485 147.362 187.599 146.29 186.8C145.362 186.107 144.393 185.47 143.39 184.89C142.82 184.55 142.24 184.24 141.63 183.89C143.12 186.34 142.57 188.96 134.14 189.45C117.65 190.45 138.55 206.18 138.55 206.18C138.55 206.18 149.15 201.09 152.1 205.6Z" fill="white"/>
<path opacity="0.5" d="M150.4 201.24C152.88 200.96 154.1 198.42 153.14 195.56C152.18 192.7 149.39 190.56 146.92 190.87C144.45 191.18 143.21 193.7 144.18 196.56C145.15 199.42 147.93 201.52 150.4 201.24Z" fill="white"/>
<path d="M124.309 214.38C123.499 208.25 96.7289 191.3 96.7289 191.3C96.7289 191.3 90.7889 188.91 92.7289 184.76C91.7413 185.322 90.7864 185.94 89.8689 186.61C89.2489 187.057 88.6689 187.517 88.1289 187.99C80.1289 194.89 80.1289 203.99 88.1289 210.87C88.6689 211.337 89.2489 211.797 89.8689 212.25C90.6889 212.85 91.5689 213.42 92.5189 213.98C93.4689 214.54 94.3789 214.98 95.3589 215.46C96.1389 215.83 96.9489 216.18 97.7689 216.46C98.5889 216.74 99.4189 217.09 100.279 217.37C102.892 218.214 105.567 218.856 108.279 219.29L110.069 219.55C112.723 219.883 115.394 220.049 118.069 220.05C121.342 220.041 124.608 219.774 127.839 219.25C127.839 219.25 123.549 218.41 124.309 214.38Z" fill="#D6B066" fill-opacity="0.19"/>
<path opacity="0.3" d="M124.309 214.38C123.499 208.25 96.7289 191.3 96.7289 191.3C96.7289 191.3 90.7889 188.91 92.7289 184.76C91.7413 185.322 90.7864 185.94 89.8689 186.61C89.2489 187.057 88.6689 187.517 88.1289 187.99C80.1289 194.89 80.1289 203.99 88.1289 210.87C88.6689 211.337 89.2489 211.797 89.8689 212.25C90.6889 212.85 91.5689 213.42 92.5189 213.98C93.4689 214.54 94.3789 214.98 95.3589 215.46C96.1389 215.83 96.9489 216.18 97.7689 216.46C98.5889 216.74 99.4189 217.09 100.279 217.37C102.892 218.214 105.567 218.856 108.279 219.29L110.069 219.55C112.723 219.883 115.394 220.049 118.069 220.05C121.342 220.041 124.608 219.774 127.839 219.25C127.839 219.25 123.549 218.41 124.309 214.38Z" fill="white"/>
<path d="M99.079 188.55C89.079 194.31 88.679 203.55 97.859 209.55C98.249 209.81 98.659 210.06 99.079 210.3C109.489 216.3 126.369 216.3 136.779 210.3C147.189 204.3 147.199 194.55 136.779 188.54C136.359 188.29 135.919 188.06 135.479 187.83C124.999 182.54 109.059 182.78 99.079 188.55Z" fill="#D6B066" fill-opacity="0.19"/>
<path opacity="0.2" d="M99.079 188.55C89.079 194.31 88.679 203.55 97.859 209.55C98.249 209.81 98.659 210.06 99.079 210.3C109.489 216.3 126.369 216.3 136.779 210.3C147.189 204.3 147.199 194.55 136.779 188.54C136.359 188.29 135.919 188.06 135.479 187.83C124.999 182.54 109.059 182.78 99.079 188.55Z" fill="black"/>
<path d="M99.9195 189C89.9695 194.74 89.9695 204.06 99.9195 209.8C109.87 215.54 126.01 215.55 135.92 209.8C145.83 204.05 145.92 194.74 135.92 189C125.92 183.26 109.88 183.28 99.9195 189Z" fill="#D6B066" fill-opacity="0.19"/>
<path opacity="0.5" d="M99.9195 189C89.9695 194.74 89.9695 204.06 99.9195 209.8C109.87 215.54 126.01 215.55 135.92 209.8C145.83 204.05 145.92 194.74 135.92 189C125.92 183.26 109.88 183.28 99.9195 189Z" fill="black"/>
<path d="M99.919 193.13C109.919 187.38 126.009 187.38 135.919 193.13C139.989 195.48 142.399 198.43 143.139 201.48C142.399 204.54 139.989 207.48 135.919 209.83C125.919 215.58 109.839 215.58 99.919 209.83C95.849 207.48 93.449 204.54 92.709 201.48C93.449 198.43 95.849 195.48 99.919 193.13Z" fill="#D6B066" fill-opacity="0.19"/>
<path opacity="0.35" d="M99.919 193.13C109.919 187.38 126.009 187.38 135.919 193.13C139.989 195.48 142.399 198.43 143.139 201.48C142.399 204.54 139.989 207.48 135.919 209.83C125.919 215.58 109.839 215.58 99.919 209.83C95.849 207.48 93.449 204.54 92.709 201.48C93.449 198.43 95.849 195.48 99.919 193.13Z" fill="black"/>
<path d="M134 203.86C134 203.37 134 201.34 134 200.86C134 199.61 133.14 198.4 131.28 197.32H131.22C127.8 195.32 124.22 195.6 121.11 196.39C119.77 196.72 118.5 197.16 117.34 197.56C116.015 198.052 114.663 198.47 113.29 198.81C112.658 198.957 112.009 199.02 111.36 199C110.807 198.962 110.267 198.816 109.77 198.57L109.89 198.48L110.3 198.24C110.641 198.04 110.995 197.862 111.36 197.71C112.25 197.317 113.209 197.103 114.182 197.08C115.155 197.058 116.123 197.228 117.03 197.58L120.3 194.28V191.28C117.417 190.297 114.308 190.182 111.36 190.95C110.388 191.205 109.438 191.54 108.52 191.95L105.22 190L101.32 192.25V195.25L102.65 196.02C102.293 196.539 102.095 197.15 102.08 197.78V200.78C102.08 202.03 102.98 203.23 104.86 204.32C106.496 205.279 108.346 205.812 110.24 205.87C110.59 205.87 110.96 205.87 111.31 205.87C113.289 205.728 115.237 205.311 117.1 204.63L118.22 204.24L114.93 207.54V210.54C116.958 211.307 119.121 211.653 121.287 211.559C123.453 211.464 125.577 210.931 127.53 209.99L130.76 211.86L134.66 209.61V206.61L133.32 205.84C133.741 205.264 133.978 204.573 134 203.86ZM125.78 203.6C125.487 203.77 125.183 203.92 124.87 204.05C122.843 204.922 120.554 204.958 118.5 204.15C121.5 203.07 124.1 202.15 126.27 203.29C126.11 203.39 126 203.5 125.77 203.6H125.78Z" fill="#D6B066" fill-opacity="0.19"/>
<path d="M121.1 196.31C119.76 196.64 118.49 197.08 117.33 197.48C116.005 197.972 114.653 198.39 113.28 198.73C112.648 198.877 111.999 198.94 111.35 198.92C110.698 198.883 110.064 198.691 109.5 198.36C108.24 197.64 108.06 196.58 109.88 195.36L110.29 195.11C110.633 194.913 110.987 194.736 111.35 194.58C112.24 194.185 113.2 193.972 114.173 193.951C115.147 193.931 116.114 194.103 117.02 194.46L120.29 191.16C117.407 190.177 114.298 190.062 111.35 190.83C110.378 191.085 109.428 191.42 108.51 191.83L105.22 190L101.32 192.25L104.55 194.12C101.27 196.61 101.2 199.2 104.89 201.33C106.53 202.28 108.377 202.812 110.27 202.88C110.627 202.9 110.984 202.9 111.34 202.88C113.319 202.735 115.268 202.314 117.13 201.63C120.87 200.38 123.9 198.91 126.42 200.36C128.11 201.36 127.64 202.56 125.79 203.63C125.497 203.8 125.193 203.95 124.88 204.08C123.857 204.522 122.755 204.754 121.64 204.763C120.526 204.772 119.42 204.556 118.39 204.13L114.96 207.57C116.988 208.337 119.151 208.683 121.317 208.589C123.483 208.494 125.607 207.961 127.56 207.02L130.79 208.88L134.69 206.63L131.46 204.77C134.71 202.26 135.08 199.53 131.29 197.31H131.23C127.79 195.26 124.25 195.52 121.1 196.31Z" fill="#D6B066" fill-opacity="0.19"/>
<g opacity="0.3">
<path d="M121.1 196.31C119.76 196.64 118.49 197.08 117.33 197.48C116.005 197.972 114.653 198.39 113.28 198.73C112.648 198.877 111.999 198.94 111.35 198.92C110.698 198.883 110.064 198.691 109.5 198.36C108.24 197.64 108.06 196.58 109.88 195.36L110.29 195.11C110.633 194.913 110.987 194.736 111.35 194.58C112.24 194.185 113.2 193.972 114.173 193.951C115.147 193.931 116.114 194.103 117.02 194.46L120.29 191.16C117.407 190.177 114.298 190.062 111.35 190.83C110.378 191.085 109.428 191.42 108.51 191.83L105.22 190L101.32 192.25L104.55 194.12C101.27 196.61 101.2 199.2 104.89 201.33C106.53 202.28 108.377 202.812 110.27 202.88C110.627 202.9 110.984 202.9 111.34 202.88C113.319 202.735 115.268 202.314 117.13 201.63C120.87 200.38 123.9 198.91 126.42 200.36C128.11 201.36 127.64 202.56 125.79 203.63C125.497 203.8 125.193 203.95 124.88 204.08C123.857 204.522 122.755 204.754 121.64 204.763C120.526 204.772 119.42 204.556 118.39 204.13L114.96 207.57C116.988 208.337 119.151 208.683 121.317 208.589C123.483 208.494 125.607 207.961 127.56 207.02L130.79 208.88L134.69 206.63L131.46 204.77C134.71 202.26 135.08 199.53 131.29 197.31H131.23C127.79 195.26 124.25 195.52 121.1 196.31Z" fill="white"/>
</g>
<path opacity="0.45" d="M101.32 192.21L105.25 190.43L108.48 191.85L105.22 189.96L101.32 192.21Z" fill="#F5F5F5"/>
<path opacity="0.45" d="M110.869 191C113.646 190.437 116.516 190.533 119.249 191.28L116.999 194.48L120.269 191.19C117.23 190.161 113.947 190.094 110.869 191Z" fill="#F5F5F5"/>
<path opacity="0.45" d="M131.21 197.24H131.27C135.06 199.46 134.69 202.24 131.44 204.7C134.32 201.57 133.8 199.38 130.68 197.58C127.724 196.079 124.349 195.618 121.1 196.27C124.25 195.52 127.79 195.26 131.21 197.24Z" fill="#F5F5F5"/>
<path opacity="0.45" d="M131.44 204.74L133.92 206.64L130.77 208.85L134.67 206.6L131.44 204.74Z" fill="#F5F5F5"/>
<path opacity="0.45" d="M124.859 204.05C122.938 205.026 120.713 205.223 118.649 204.6L114.939 207.54L118.369 204.1C119.4 204.526 120.505 204.742 121.62 204.733C122.734 204.725 123.836 204.492 124.859 204.05Z" fill="#F5F5F5"/>
<path opacity="0.45" d="M113.25 198.74C112.493 199.048 111.674 199.169 110.861 199.093C110.047 199.016 109.265 198.744 108.58 198.3C107.45 197.3 108.17 196.3 109.85 195.39C108.03 196.59 108.21 197.65 109.47 198.39C110.033 198.721 110.667 198.913 111.32 198.95C111.969 198.964 112.618 198.893 113.25 198.74Z" fill="#F5F5F5"/>
<path opacity="0.45" d="M104.52 194.1C104.24 194.35 101.89 196.53 102.93 198.72C103.97 200.91 107.47 202.55 110.25 202.85C108.356 202.782 106.509 202.25 104.87 201.3C101.17 199.18 101.24 196.59 104.52 194.1Z" fill="#F5F5F5"/>
<path d="M84.4992 187.18C86.7856 183.608 89.9497 180.681 93.6892 178.68C108.689 170 133.099 170 148.129 178.68C151.873 180.678 155.041 183.605 157.329 187.18H159.409V195.05C159.139 200.52 155.409 205.94 148.159 210.11C133.159 218.79 108.759 218.79 93.7192 210.11C86.4892 205.94 82.7192 200.52 82.4492 195.05V187.18H84.4992Z" fill="#D6B066" fill-opacity="0.19"/>
<path opacity="0.25" d="M84.4992 187.18C86.7856 183.608 89.9497 180.681 93.6892 178.68C108.689 170 133.099 170 148.129 178.68C151.873 180.678 155.041 183.605 157.329 187.18H159.409V195.05C159.139 200.52 155.409 205.94 148.159 210.11C133.159 218.79 108.759 218.79 93.7192 210.11C86.4892 205.94 82.7192 200.52 82.4492 195.05V187.18H84.4992Z" fill="black"/>
<path opacity="0.1" d="M120.91 172.17C130.76 172.17 140.62 174.34 148.13 178.68C151.874 180.678 155.042 183.605 157.33 187.18H159.41V195.05C159.14 200.52 155.41 205.94 148.16 210.11C140.65 214.45 130.79 216.62 120.94 216.62L120.91 172.17Z" fill="black"/>
<path opacity="0.1" d="M141.939 175.78C144.079 176.574 146.15 177.544 148.129 178.68C151.874 180.678 155.042 183.605 157.329 187.18H159.409V195.05C159.139 200.52 155.409 205.94 148.159 210.11C146.18 211.246 144.109 212.216 141.969 213.01L141.939 175.78Z" fill="black"/>
<path opacity="0.5" d="M99.8899 175.78C97.7478 176.576 95.6743 177.546 93.6899 178.68C89.9504 180.681 86.7863 183.608 84.4999 187.18H82.4199V195.05C82.6899 200.52 86.4199 205.94 93.6899 210.11C95.6743 211.244 97.7478 212.214 99.8899 213.01V175.78Z" fill="#D6B066" fill-opacity="0.19"/>
<path d="M148.14 171.47C163.14 180.15 163.14 194.22 148.14 202.9C134.98 210.5 114.68 211.45 99.7303 205.75L99.1303 205.52C97.2556 204.78 95.4374 203.905 93.6903 202.9C81.1603 195.66 79.0703 184.68 87.4503 176.19C89.3112 174.346 91.4097 172.759 93.6903 171.47C108.72 162.79 133.1 162.79 148.14 171.47Z" fill="#D6B066" fill-opacity="0.19"/>
<path opacity="0.2" d="M148.14 171.47C163.14 180.15 163.14 194.22 148.14 202.9C134.98 210.5 114.68 211.45 99.7303 205.75L99.1303 205.52C97.2556 204.78 95.4374 203.905 93.6903 202.9C81.1603 195.66 79.0703 184.68 87.4503 176.19C89.3112 174.346 91.4097 172.759 93.6903 171.47C108.72 162.79 133.1 162.79 148.14 171.47Z" fill="black"/>
<path opacity="0.5" d="M87.4503 176.19C85.8173 178.041 84.6123 180.229 83.921 182.599C83.2296 184.968 83.0689 187.461 83.4503 189.9C84.7803 197.54 95.4503 203.97 99.1603 205.52C97.2856 204.78 95.4675 203.905 93.7203 202.9C81.1603 195.66 79.0703 184.68 87.4503 176.19Z" fill="#F5F5F5"/>
<path opacity="0.5" d="M154.38 198.18C156.011 196.328 157.214 194.139 157.906 191.77C158.597 189.401 158.759 186.909 158.38 184.47C157.04 176.83 146.38 170.4 142.66 168.85C144.535 169.59 146.353 170.466 148.1 171.47C160.67 178.71 162.75 189.7 154.38 198.18Z" fill="#F5F5F5"/>
<path d="M120.931 207.81C140.697 207.81 156.721 198.56 156.721 187.15C156.721 175.74 140.697 166.49 120.931 166.49C101.164 166.49 85.1406 175.74 85.1406 187.15C85.1406 198.56 101.164 207.81 120.931 207.81Z" fill="#D6B066" fill-opacity="0.19"/>
<path opacity="0.4" d="M120.931 207.81C140.697 207.81 156.721 198.56 156.721 187.15C156.721 175.74 140.697 166.49 120.931 166.49C101.164 166.49 85.1406 175.74 85.1406 187.15C85.1406 198.56 101.164 207.81 120.931 207.81Z" fill="white"/>
<path opacity="0.2" d="M86.7696 193.33C83.8896 188.01 84.8296 182.15 89.5796 177.18C90.5021 176.209 91.5057 175.32 92.5796 174.52C93.5083 173.827 94.4766 173.189 95.4796 172.61C96.0496 172.28 96.6296 171.96 97.2396 171.66C95.7496 174.1 96.2996 176.73 104.72 177.22C121.22 178.22 100.32 193.94 100.32 193.94C100.32 193.94 89.7096 188.81 86.7696 193.33Z" fill="white"/>
<path opacity="0.5" d="M88.47 189C85.99 188.72 84.77 186.17 85.73 183.31C86.69 180.45 89.48 178.31 91.95 178.63C94.42 178.95 95.65 181.45 94.69 184.31C93.73 187.17 90.94 189.24 88.47 189Z" fill="white"/>
<path d="M114.56 202.1C115.37 196 142.14 179 142.14 179C142.14 179 148.08 176.62 146.14 172.47C147.128 173.032 148.082 173.65 149 174.32C149.605 174.748 150.186 175.209 150.74 175.7C158.74 182.6 158.74 191.7 150.74 198.57C150.2 199.043 149.62 199.503 149 199.95C148.148 200.574 147.264 201.151 146.35 201.68C145.44 202.21 144.49 202.68 143.51 203.17C142.73 203.54 141.92 203.88 141.1 204.17C140.28 204.46 139.44 204.79 138.59 205.07C135.978 205.919 133.303 206.561 130.59 206.99C130 207.09 129.39 207.17 128.8 207.25C126.147 207.592 123.475 207.759 120.8 207.75C117.518 207.769 114.241 207.518 111 207C111 207 115.32 206.13 114.56 202.1Z" fill="#D6B066" fill-opacity="0.19"/>
<path opacity="0.3" d="M114.56 202.1C115.37 196 142.14 179 142.14 179C142.14 179 148.08 176.62 146.14 172.47C147.128 173.032 148.082 173.65 149 174.32C149.605 174.748 150.186 175.209 150.74 175.7C158.74 182.6 158.74 191.7 150.74 198.57C150.2 199.043 149.62 199.503 149 199.95C148.148 200.574 147.264 201.151 146.35 201.68C145.44 202.21 144.49 202.68 143.51 203.17C142.73 203.54 141.92 203.88 141.1 204.17C140.28 204.46 139.44 204.79 138.59 205.07C135.978 205.919 133.303 206.561 130.59 206.99C130 207.09 129.39 207.17 128.8 207.25C126.147 207.592 123.475 207.759 120.8 207.75C117.518 207.769 114.241 207.518 111 207C111 207 115.32 206.13 114.56 202.1Z" fill="white"/>
<path d="M139.791 176.27C149.791 182.04 150.181 191.27 141.011 197.27C140.621 197.53 140.211 197.78 139.791 198.03C129.381 204.03 112.501 204.03 102.091 198.03C91.6805 192.03 91.6705 182.27 102.091 176.26C102.511 176.01 102.951 175.78 103.391 175.55C113.871 170.27 129.811 170.5 139.791 176.27Z" fill="#D6B066" fill-opacity="0.19"/>
<path opacity="0.2" d="M139.791 176.27C149.791 182.04 150.181 191.27 141.011 197.27C140.621 197.53 140.211 197.78 139.791 198.03C129.381 204.03 112.501 204.03 102.091 198.03C91.6805 192.03 91.6705 182.27 102.091 176.26C102.511 176.01 102.951 175.78 103.391 175.55C113.871 170.27 129.811 170.5 139.791 176.27Z" fill="black"/>
<path d="M120.929 201.86C135.001 201.86 146.409 195.274 146.409 187.15C146.409 179.026 135.001 172.44 120.929 172.44C106.857 172.44 95.4492 179.026 95.4492 187.15C95.4492 195.274 106.857 201.86 120.929 201.86Z" fill="#D6B066" fill-opacity="0.19"/>
<path opacity="0.5" d="M120.929 201.86C135.001 201.86 146.409 195.274 146.409 187.15C146.409 179.026 135.001 172.44 120.929 172.44C106.857 172.44 95.4492 179.026 95.4492 187.15C95.4492 195.274 106.857 201.86 120.929 201.86Z" fill="black"/>
<path d="M138.999 180.85C128.999 175.11 112.909 175.11 102.999 180.85C98.9293 183.2 96.5193 186.15 95.7793 189.21C96.5193 192.26 98.9293 195.21 102.999 197.56C112.999 203.3 129.079 203.3 138.999 197.56C143.069 195.21 145.469 192.26 146.209 189.21C145.419 186.15 142.999 183.2 138.999 180.85Z" fill="#D6B066" fill-opacity="0.19"/>
<path opacity="0.35" d="M138.999 180.85C128.999 175.11 112.909 175.11 102.999 180.85C98.9293 183.2 96.5193 186.15 95.7793 189.21C96.5193 192.26 98.9293 195.21 102.999 197.56C112.999 203.3 129.079 203.3 138.999 197.56C143.069 195.21 145.469 192.26 146.209 189.21C145.419 186.15 142.999 183.2 138.999 180.85Z" fill="black"/>
<path d="M137 191.59C137 191.09 137 189.06 137 188.59C137 187.35 136.13 186.14 134.28 185.05H134.21C130.79 183.05 127.21 183.33 124.11 184.12C122.77 184.46 121.5 184.89 120.34 185.29C119.032 185.784 117.697 186.201 116.34 186.54C115.712 186.688 115.065 186.749 114.42 186.72C113.863 186.693 113.318 186.55 112.82 186.3L112.95 186.21L113.35 185.96C113.697 185.763 114.054 185.586 114.42 185.43C115.309 185.037 116.266 184.823 117.237 184.801C118.208 184.778 119.175 184.948 120.08 185.3L123.35 182.01V179.01C120.469 178.03 117.364 177.918 114.42 178.69C113.448 178.945 112.498 179.28 111.58 179.69L108.31 177.8L104.41 180.06V183.06L105.75 183.83C105.386 184.35 105.184 184.966 105.17 185.6C105.17 186.1 105.17 188.11 105.17 188.6C105.17 189.85 106.06 191.06 107.94 192.14C109.579 193.099 111.432 193.632 113.33 193.69C113.69 193.69 114.05 193.69 114.41 193.69C116.386 193.545 118.331 193.124 120.19 192.44L121.32 192.05L118.03 195.35V198.35C120.057 199.118 122.22 199.467 124.386 199.374C126.552 199.281 128.676 198.749 130.63 197.81L133.86 199.67L137.75 197.42V194.42L136.42 193.65C136.823 193.04 137.025 192.32 137 191.59ZM128.78 191.33C128.488 191.496 128.188 191.646 127.88 191.78C125.848 192.649 123.556 192.681 121.5 191.87C124.55 190.8 127.1 189.87 129.28 191.01L128.78 191.33Z" fill="#D6B066" fill-opacity="0.19"/>
<path d="M124.091 184C122.751 184.34 121.481 184.77 120.321 185.17C119.013 185.664 117.677 186.081 116.321 186.42C115.692 186.568 115.046 186.629 114.401 186.6C113.746 186.566 113.108 186.378 112.541 186.05C111.291 185.32 111.111 184.26 112.931 183.05L113.331 182.81C113.673 182.605 114.031 182.428 114.401 182.28C115.289 181.887 116.246 181.673 117.218 181.651C118.189 181.628 119.155 181.798 120.061 182.15L123.331 178.85C120.45 177.869 117.344 177.758 114.401 178.53C113.428 178.785 112.478 179.119 111.561 179.53L108.291 177.64L104.391 179.9L107.621 181.76C104.341 184.25 104.281 186.83 107.961 188.96C109.6 189.918 111.453 190.451 113.351 190.51C113.711 190.51 114.071 190.51 114.431 190.51C116.407 190.37 118.353 189.949 120.211 189.26C123.951 188.01 126.981 186.54 129.501 187.99C131.191 188.99 130.731 190.19 128.871 191.27C128.579 191.436 128.278 191.586 127.971 191.72C126.942 192.152 125.837 192.375 124.721 192.375C123.605 192.375 122.5 192.152 121.471 191.72L118.051 195.16C120.079 195.927 122.241 196.273 124.407 196.179C126.573 196.084 128.697 195.55 130.651 194.61L133.881 196.48L137.781 194.22L134.551 192.36C137.791 189.85 138.171 187.12 134.381 184.9H134.311C130.771 183 127.231 183.24 124.091 184Z" fill="#D6B066" fill-opacity="0.19"/>
<g opacity="0.3">
<path d="M124.091 184C122.751 184.34 121.481 184.77 120.321 185.17C119.013 185.664 117.677 186.081 116.321 186.42C115.692 186.568 115.046 186.629 114.401 186.6C113.746 186.566 113.108 186.378 112.541 186.05C111.291 185.32 111.111 184.26 112.931 183.05L113.331 182.81C113.673 182.605 114.031 182.428 114.401 182.28C115.289 181.887 116.246 181.673 117.218 181.651C118.189 181.628 119.155 181.798 120.061 182.15L123.331 178.85C120.45 177.869 117.344 177.758 114.401 178.53C113.428 178.785 112.478 179.119 111.561 179.53L108.291 177.64L104.391 179.9L107.621 181.76C104.341 184.25 104.281 186.83 107.961 188.96C109.6 189.918 111.453 190.451 113.351 190.51C113.711 190.51 114.071 190.51 114.431 190.51C116.407 190.37 118.353 189.949 120.211 189.26C123.951 188.01 126.981 186.54 129.501 187.99C131.191 188.99 130.731 190.19 128.871 191.27C128.579 191.436 128.278 191.586 127.971 191.72C126.942 192.152 125.837 192.375 124.721 192.375C123.605 192.375 122.5 192.152 121.471 191.72L118.051 195.16C120.079 195.927 122.241 196.273 124.407 196.179C126.573 196.084 128.697 195.55 130.651 194.61L133.881 196.48L137.781 194.22L134.551 192.36C137.791 189.85 138.171 187.12 134.381 184.9H134.311C130.771 183 127.231 183.24 124.091 184Z" fill="white"/>
</g>
<path opacity="0.45" d="M104.301 179.94L108.241 178.15L111.471 179.57L108.201 177.69L104.301 179.94Z" fill="#F5F5F5"/>
<path opacity="0.45" d="M113.859 178.71C116.637 178.157 119.505 178.253 122.239 178.99L119.999 182.21L123.269 178.91C120.229 177.873 116.941 177.803 113.859 178.71Z" fill="#F5F5F5"/>
<path opacity="0.45" d="M134.19 185H134.26C138.05 187.22 137.67 189.95 134.43 192.46C137.3 189.33 136.78 187.15 133.66 185.34C130.707 183.844 127.337 183.382 124.09 184.03C127.23 183.24 130.77 183 134.19 185Z" fill="#F5F5F5"/>
<path opacity="0.45" d="M134.43 192.46L136.9 194.36L133.76 196.58L137.66 194.32L134.43 192.46Z" fill="#F5F5F5"/>
<path opacity="0.45" d="M127.85 191.78C125.922 192.75 123.696 192.944 121.63 192.32L117.93 195.26L121.35 191.82C122.381 192.246 123.488 192.462 124.604 192.455C125.72 192.448 126.823 192.219 127.85 191.78Z" fill="#F5F5F5"/>
<path opacity="0.45" d="M116.229 186.47C115.474 186.783 114.653 186.905 113.838 186.827C113.024 186.748 112.242 186.471 111.559 186.02C110.429 185.02 111.159 184.02 112.839 183.11C111.019 184.31 111.199 185.37 112.449 186.11C113.017 186.438 113.655 186.626 114.309 186.66C114.955 186.685 115.601 186.622 116.229 186.47Z" fill="#F5F5F5"/>
<path opacity="0.45" d="M107.5 181.83C107.23 182.07 104.88 184.26 105.91 186.45C106.94 188.64 110.45 190.28 113.23 190.58C111.332 190.522 109.479 189.989 107.84 189.03C104.16 186.9 104.22 184.32 107.5 181.83Z" fill="#F5F5F5"/>
<path d="M86.9102 183.27L87.8802 175.9L88.8502 183.27L101.61 183.83L88.8502 184.39L87.8802 191.75L86.9102 184.39L74.1602 183.83L86.9102 183.27Z" fill="white"/>
<path opacity="0.3" d="M217.396 158.543L157.651 193.175C155.629 194.345 155.629 196.236 157.651 197.406L226.138 236.989C227.273 237.564 228.526 237.864 229.798 237.864C231.07 237.864 232.323 237.564 233.458 236.989L293.203 202.357C295.224 201.187 295.224 199.296 293.203 198.126L224.715 158.562C223.583 157.982 222.33 157.678 221.058 157.675C219.786 157.671 218.531 157.969 217.396 158.543Z" fill="#D6B066"/>
<path d="M241.788 216.285C239.473 216.465 237.149 216.049 235.04 215.077L175.295 180.661C171.691 178.845 167.638 174.109 167.386 169.663L165.514 127.103L168.836 126.916L170.708 169.466C170.886 172.508 174.059 176.318 176.792 177.684L236.537 212.101C238.143 212.77 239.88 213.066 241.616 212.966C243.353 212.865 245.044 212.371 246.562 211.521L286.417 188.57C287.353 187.943 287.914 187.194 287.877 186.567C287.84 185.94 287.24 185.294 286.239 184.789L222.282 147.657C218.678 145.851 214.635 141.105 214.382 136.65L213.493 113.044L216.816 112.857L217.752 136.463C217.92 139.505 221.084 143.314 223.808 144.681L287.718 181.784C289.852 182.86 291.087 184.48 291.2 186.342C291.312 188.205 290.264 190.011 288.233 191.322L248.396 214.273C246.404 215.502 244.128 216.195 241.788 216.285Z" fill="#455A64"/>
<path d="M235.05 215.077C235.084 215.1 235.122 215.116 235.162 215.124C231.268 220.179 224.922 221.62 223.499 220.956C222.348 220.431 221.674 219.084 222.563 218.241C222.966 217.867 223.658 217.483 224.314 216.94C226.186 215.358 226.85 212.597 227.028 210.454L235.05 215.077Z" fill="#E0E0E0"/>
<path d="M231.042 222.884C230.937 220.669 230.311 218.51 229.214 216.583C228.118 214.656 226.583 213.014 224.733 211.792C222.861 210.716 221.233 210.659 220.053 211.427L215.738 213.861L224.789 229.464L229.067 227.039C230.256 226.384 231.023 224.952 231.042 222.884Z" fill="#37474F"/>
<path d="M220.25 214.338C222.102 215.556 223.638 217.195 224.735 219.121C225.831 221.048 226.456 223.206 226.559 225.42C226.559 229.492 223.666 231.12 220.156 229.061C218.305 227.843 216.768 226.204 215.671 224.278C214.575 222.351 213.95 220.193 213.848 217.979C213.876 213.907 216.74 212.279 220.25 214.338Z" fill="#455A64"/>
<path d="M218.088 220.441C218.088 218.849 219.024 218.129 220.259 218.821C220.915 219.295 221.449 219.917 221.82 220.635C222.19 221.354 222.387 222.15 222.393 222.958C222.393 224.55 221.411 225.28 220.222 224.578C219.567 224.104 219.032 223.482 218.662 222.764C218.291 222.045 218.094 221.249 218.088 220.441Z" fill="#263238"/>
<path d="M224.004 208.722C224.004 208.722 224.416 216.21 220.981 219.102C220.335 219.636 219.633 220.038 219.231 220.403C218.36 221.218 219.044 222.584 220.167 223.118C221.842 223.894 230.379 221.695 233.711 214.319L224.004 208.722Z" fill="#F5F5F5"/>
<path d="M220.353 220.89C220.545 221.001 220.708 221.155 220.83 221.34C220.952 221.526 221.029 221.737 221.055 221.957C221.055 222.359 220.802 222.537 220.437 222.35C220.246 222.241 220.084 222.088 219.964 221.904C219.844 221.72 219.768 221.511 219.744 221.292C219.716 220.89 219.96 220.712 220.353 220.89Z" fill="#263238"/>
<path d="M187.865 187.905L187.968 187.961C184.084 193.016 177.747 194.457 176.315 193.783C175.173 193.259 174.443 191.911 175.379 191.069C175.781 190.695 176.474 190.311 177.12 189.768C178.992 188.186 179.657 185.425 179.834 183.281L187.865 187.905Z" fill="#E0E0E0"/>
<path d="M183.868 195.712C183.765 193.493 183.14 191.329 182.044 189.397C180.948 187.465 179.411 185.819 177.559 184.592C175.687 183.515 174.059 183.459 172.879 184.236L168.564 186.66L177.606 202.264L181.893 199.839C183.091 199.212 183.849 197.78 183.868 195.712Z" fill="#37474F"/>
<path d="M173.076 187.166C174.925 188.387 176.459 190.027 177.555 191.953C178.651 193.878 179.278 196.035 179.385 198.248C179.385 202.32 176.492 203.948 172.982 201.899C171.134 200.675 169.599 199.033 168.503 197.106C167.407 195.179 166.78 193.021 166.674 190.807C166.702 186.735 169.566 185.107 173.076 187.166Z" fill="#455A64"/>
<path d="M170.877 193.269C170.877 191.677 171.86 190.957 173.048 191.649C173.704 192.123 174.238 192.745 174.609 193.463C174.98 194.182 175.176 194.978 175.183 195.787C175.183 197.378 174.247 198.108 173.011 197.406C172.356 196.932 171.821 196.31 171.451 195.592C171.08 194.873 170.883 194.077 170.877 193.269Z" fill="#263238"/>
<path d="M176.829 181.55C176.829 181.55 177.241 189.038 173.806 191.93C173.15 192.464 172.458 192.866 172.055 193.231C171.175 194.045 171.868 195.412 172.991 195.945C174.657 196.722 183.203 194.523 186.535 187.147L176.829 181.55Z" fill="#F5F5F5"/>
<path d="M173.161 193.718C173.354 193.827 173.517 193.981 173.637 194.167C173.758 194.353 173.832 194.565 173.854 194.785C173.854 195.187 173.611 195.365 173.246 195.178C173.053 195.07 172.89 194.918 172.77 194.734C172.649 194.55 172.575 194.339 172.553 194.12C172.544 193.718 172.824 193.54 173.161 193.718Z" fill="#263238"/>
<path d="M282.317 182.514C278.423 187.55 272.086 189.001 270.663 188.336C269.512 187.802 268.838 186.464 269.727 185.622C270.13 185.247 270.822 184.863 271.478 184.311C273.35 182.729 274.014 179.978 274.192 177.825L281.746 182.177L282.232 182.458L282.317 182.514Z" fill="#E0E0E0"/>
<path d="M278.208 190.255C278.101 188.042 277.473 185.885 276.377 183.96C275.281 182.035 273.747 180.394 271.899 179.172C270.027 178.087 268.399 178.04 267.219 178.807L262.904 181.241L271.946 196.844L276.233 194.411C277.431 193.765 278.189 192.333 278.208 190.255Z" fill="#37474F"/>
<path d="M267.416 181.718C269.268 182.937 270.805 184.576 271.901 186.502C272.998 188.428 273.622 190.587 273.725 192.801C273.725 196.872 270.832 198.501 267.322 196.442C265.471 195.224 263.934 193.584 262.837 191.658C261.741 189.732 261.116 187.574 261.014 185.36C261.042 181.288 263.953 179.659 267.416 181.718Z" fill="#455A64"/>
<path d="M265.217 187.821C265.217 186.23 266.153 185.509 267.388 186.202C268.043 186.676 268.578 187.297 268.949 188.016C269.319 188.735 269.516 189.53 269.522 190.339C269.522 191.93 268.54 192.651 267.351 191.958C266.696 191.484 266.161 190.863 265.791 190.144C265.42 189.426 265.223 188.63 265.217 187.821Z" fill="#263238"/>
<path d="M271.169 176.102C271.169 176.102 271.581 183.59 268.145 186.473C267.49 187.016 266.798 187.409 266.395 187.784C265.515 188.598 266.208 189.964 267.331 190.498C268.997 191.275 277.543 189.075 280.875 181.7L271.169 176.102Z" fill="#F5F5F5"/>
<path d="M267.519 188.27C267.711 188.378 267.874 188.53 267.995 188.714C268.115 188.898 268.189 189.109 268.211 189.328C268.211 189.73 267.968 189.918 267.603 189.73C267.411 189.623 267.247 189.471 267.127 189.287C267.006 189.102 266.932 188.892 266.91 188.673C266.882 188.27 267.163 188.092 267.519 188.27Z" fill="#263238"/>
<path d="M235.16 155.164L235.263 155.22C231.379 160.265 225.033 161.707 223.61 161.042C222.468 160.509 221.738 159.17 222.674 158.328C223.076 157.953 223.769 157.569 224.424 157.027C226.296 155.435 226.961 152.684 227.139 150.531L235.16 155.164Z" fill="#E0E0E0"/>
<path d="M231.192 162.961C231.09 160.747 230.465 158.589 229.368 156.662C228.272 154.736 226.735 153.097 224.883 151.879C223.011 150.793 221.392 150.746 220.203 151.514L215.879 153.947L224.93 169.541L229.208 167.117C230.387 166.471 231.192 165.039 231.192 162.961Z" fill="#37474F"/>
<path d="M220.373 154.415C222.221 155.638 223.755 157.28 224.85 159.207C225.944 161.135 226.569 163.293 226.672 165.507C226.672 169.578 223.789 171.207 220.279 169.148C218.43 167.926 216.894 166.284 215.798 164.357C214.702 162.43 214.076 160.271 213.971 158.056C213.989 153.994 216.863 152.365 220.373 154.415Z" fill="#455A64"/>
<path d="M218.172 160.527C218.172 158.936 219.108 158.206 220.343 158.908C220.996 159.384 221.528 160.006 221.897 160.725C222.266 161.443 222.461 162.238 222.468 163.045C222.468 164.636 221.532 165.357 220.306 164.664C219.652 164.189 219.119 163.567 218.749 162.849C218.378 162.131 218.181 161.336 218.172 160.527Z" fill="#263238"/>
<path d="M224.116 148.809C224.116 148.809 224.537 156.297 221.093 159.179C220.447 159.722 219.745 160.115 219.342 160.49C218.472 161.304 219.155 162.671 220.278 163.204C221.944 163.981 230.49 161.782 233.822 154.406L224.116 148.809Z" fill="#F5F5F5"/>
<path d="M220.476 160.977C220.667 161.086 220.829 161.239 220.949 161.423C221.07 161.606 221.145 161.816 221.169 162.034C221.169 162.437 220.916 162.624 220.56 162.437C220.368 162.328 220.205 162.176 220.083 161.992C219.961 161.808 219.884 161.598 219.858 161.379C219.84 160.977 220.111 160.79 220.476 160.977Z" fill="#263238"/>
<path d="M213.82 49.1995L212.042 50.2384L210.666 44.6224C209.461 40.7577 206.954 37.4301 203.571 35.2063L201.943 34.2703C201.459 34.0344 200.927 33.9119 200.389 33.9119C199.85 33.9119 199.319 34.0344 198.835 34.2703L187.772 40.6351C187.66 40.6996 187.536 40.7415 187.408 40.7583C187.28 40.7751 187.15 40.7665 187.025 40.7331C186.901 40.6996 186.784 40.6419 186.681 40.5633C186.579 40.4846 186.493 40.3866 186.428 40.2747C186.364 40.1629 186.322 40.0394 186.305 39.9113C186.288 39.7833 186.297 39.6532 186.33 39.5285C186.364 39.4038 186.422 39.2869 186.5 39.1844C186.579 39.082 186.677 38.9961 186.789 38.9315L197.852 32.5574C198.639 32.1593 199.508 31.9519 200.389 31.9519C201.27 31.9519 202.139 32.1593 202.925 32.5574L204.554 33.4934C208.405 36.0031 211.246 39.792 212.576 44.1919L213.82 49.1995Z" fill="#37474F"/>
<path d="M163.969 57.2959L160.768 51.7547L187.5 36.3294C187.762 36.1648 188.068 36.0838 188.377 36.0971C188.686 36.1105 188.984 36.2176 189.231 36.4043C189.891 36.8335 190.44 37.4125 190.834 38.094C191.227 38.7755 191.454 39.5403 191.496 40.3262C191.537 40.634 191.482 40.9467 191.34 41.2227C191.198 41.4986 190.975 41.7246 190.701 41.8706L163.969 57.2959Z" fill="#D6B066"/>
<path opacity="0.25" d="M163.969 57.2959L160.768 51.7547L187.5 36.3294C187.762 36.1648 188.068 36.0838 188.377 36.0971C188.686 36.1105 188.984 36.2176 189.231 36.4043C189.891 36.8335 190.44 37.4125 190.834 38.094C191.227 38.7755 191.454 39.5403 191.496 40.3262C191.537 40.634 191.482 40.9467 191.34 41.2227C191.198 41.4986 190.975 41.7246 190.701 41.8706L163.969 57.2959Z" fill="black"/>
<path d="M160.769 51.7923C161.611 51.3056 163.015 52.148 163.895 53.6643C164.775 55.1806 164.831 56.828 163.97 57.3147C163.109 57.8014 161.733 56.9497 160.844 55.4427C159.954 53.9357 159.926 52.279 160.769 51.7923Z" fill="#D6B066"/>
<path d="M162.799 79.0297L161.021 80.05L159.645 74.434C158.434 70.5873 155.935 67.2751 152.568 65.0552L150.93 64.1192C150.533 63.9492 150.194 63.666 149.955 63.305C149.717 62.9439 149.59 62.5208 149.59 62.0881C149.59 61.6555 149.717 61.2324 149.955 60.8713C150.194 60.5102 150.533 60.2271 150.93 60.057L161.498 53.9543C161.76 53.8045 162.191 54.0666 162.434 54.5346C162.677 55.0026 162.715 55.5174 162.434 55.6672L151.866 61.7699C151.718 61.8376 151.594 61.9485 151.511 62.0881C151.511 62.0881 151.586 62.2566 151.866 62.4251L153.504 63.3611C157.343 65.8607 160.179 69.6316 161.517 74.0128L162.799 79.0297Z" fill="#455A64"/>
<path d="M219.67 114.177L166.318 144.98L244.297 189.992L297.639 159.189L219.67 114.177Z" fill="#E0E0E0"/>
<path opacity="0.1" d="M219.67 114.177L166.318 144.98L244.297 189.992L297.639 159.189L219.67 114.177Z" fill="black"/>
<path d="M161.021 80.05L213.821 49.1995L219.671 114.177L166.319 144.98L161.021 80.05Z" fill="#E0E0E0"/>
<path d="M213.82 49.1995L219.67 114.177L297.648 159.189L309.966 104.695L213.82 49.1995ZM241.086 111.668C240.527 111.847 239.939 111.915 239.354 111.866C238.77 111.818 238.2 111.654 237.679 111.386C237.157 111.117 236.694 110.748 236.315 110.301C235.936 109.853 235.649 109.335 235.47 108.776L222.581 75.3326C222.304 74.8077 222.141 74.2301 222.103 73.6377C222.065 73.0454 222.153 72.4517 222.361 71.8958C222.57 71.3399 222.893 70.8344 223.311 70.4126C223.728 69.9908 224.231 69.6622 224.784 69.4485C225.338 69.2349 225.931 69.141 226.524 69.173C227.116 69.2049 227.696 69.3621 228.223 69.6342C228.751 69.9062 229.215 70.2869 229.585 70.7513C229.954 71.2156 230.222 71.753 230.369 72.328L243.258 105.771C243.743 106.842 243.788 108.062 243.381 109.165C242.975 110.269 242.15 111.168 241.086 111.668ZM265.422 123.125C264.294 123.484 263.069 123.381 262.016 122.839C260.964 122.297 260.169 121.36 259.806 120.233L246.917 86.7892C245.981 84.3556 246.964 81.7161 249.117 80.8924C249.676 80.7133 250.264 80.646 250.849 80.6945C251.433 80.7429 252.003 80.9061 252.524 81.1747C253.046 81.4433 253.509 81.812 253.888 82.2599C254.267 82.7077 254.554 83.2259 254.733 83.7847L267.631 117.2C267.876 117.733 268.014 118.31 268.036 118.896C268.058 119.483 267.964 120.068 267.76 120.618C267.556 121.169 267.245 121.673 266.845 122.103C266.446 122.534 265.965 122.881 265.431 123.125H265.422ZM289.758 134.581C289.199 134.76 288.61 134.827 288.025 134.778C287.439 134.729 286.87 134.565 286.348 134.296C285.826 134.026 285.363 133.656 284.984 133.207C284.606 132.759 284.32 132.239 284.142 131.68L271.253 98.2459C270.976 97.721 270.813 97.1434 270.775 96.551C270.737 95.9586 270.825 95.365 271.033 94.8091C271.242 94.2532 271.565 93.7477 271.983 93.3259C272.4 92.904 272.903 92.5755 273.456 92.3618C274.01 92.1482 274.603 92.0542 275.196 92.0862C275.789 92.1182 276.368 92.2754 276.895 92.5475C277.423 92.8195 277.887 93.2002 278.257 93.6645C278.626 94.1288 278.894 94.6662 279.041 95.2413L291.93 128.685C292.419 129.753 292.467 130.971 292.064 132.075C291.661 133.179 290.839 134.08 289.777 134.581H289.758Z" fill="#F0F0F0"/>
<path d="M222.105 17.7593C218.108 15.4567 214.841 15.3163 212.286 16.8233L201.653 22.9634C196.908 25.6872 194.596 33.9614 194.596 44.3323C194.596 60.3192 199.912 76.8957 211.444 83.5694C215.628 85.9843 218.932 86.1809 221.553 84.702L232.223 78.5431C236.809 75.8848 238.953 67.9101 238.953 57.689C238.981 41.6647 233.664 24.4329 222.105 17.7593Z" fill="#263238"/>
<path d="M234.197 32.5574C231.389 26.1552 227.43 20.8387 222.104 17.7593C218.107 15.4567 214.841 15.3163 212.285 16.8233L201.653 22.9634C200.162 23.8817 198.936 25.172 198.096 26.7074L221.215 40.0548L234.197 32.5574Z" fill="#37474F"/>
<path d="M211.471 83.504C199.911 76.8303 194.623 60.2537 194.623 44.2669C194.623 28.28 200.108 17.2913 211.471 23.8714C223.031 30.5451 228.319 47.7769 228.319 63.7544C228.319 79.7319 223.115 90.2525 211.471 83.504Z" fill="#455A64"/>
<path d="M211.471 39.5119C207.933 37.4621 205.855 40.0173 205.855 50.8001C205.855 60.9276 208.055 65.8322 211.471 67.8353C214.888 69.8383 217.087 67.7136 217.087 57.324C217.087 46.9344 215.187 41.6366 211.471 39.5119Z" fill="#263238"/>
<path d="M264.178 38.1547L253.293 31.8647L242.66 38.0049L217.678 131.418L228.648 137.754L239.281 131.614L264.178 38.1547Z" fill="#37474F"/>
<path d="M253.545 44.2948L228.648 137.754L217.678 131.418L242.66 38.0049L253.545 44.2948Z" fill="#455A64"/>
<path d="M264.177 38.1548L253.544 44.2949L228.646 137.755L239.279 131.614L264.177 38.1548Z" fill="#263238"/>
<path d="M271.685 85.9094C267.688 83.5975 264.421 83.4571 261.866 84.9734L251.233 91.123C246.488 93.8467 244.176 102.112 244.176 112.492C244.176 128.469 249.492 145.055 261.024 151.729C265.208 154.134 268.559 154.331 271.133 152.852L281.794 146.693C286.389 144.035 288.533 136.06 288.533 125.839C288.561 109.815 283.244 92.5831 271.685 85.9094Z" fill="#263238"/>
<path d="M283.777 100.708C280.969 94.3054 277.01 88.9795 271.684 85.9094C267.687 83.5975 264.421 83.4571 261.866 84.9734L251.233 91.123C249.744 92.043 248.518 93.3328 247.676 94.867L270.795 108.214L283.777 100.708Z" fill="#37474F"/>
<path d="M261.051 151.682C249.492 145.008 244.203 128.423 244.203 112.445C244.203 96.4675 249.688 85.4695 261.051 92.0402C272.611 98.7233 277.899 115.955 277.899 131.933C277.899 147.91 272.695 158.384 261.051 151.682Z" fill="#455A64"/>
<path d="M261.052 107.634C257.513 105.594 255.436 108.139 255.436 118.922C255.436 129.059 257.635 133.964 261.052 135.957C264.468 137.951 266.668 135.845 266.668 125.455C266.705 114.925 264.767 109.777 261.052 107.634Z" fill="#263238"/>
<path d="M160.992 80.05L166.29 144.98L244.296 190.002L256.605 135.499L160.992 80.05ZM191.768 143.96C191.209 144.141 190.621 144.209 190.035 144.161C189.45 144.113 188.881 143.95 188.359 143.681C187.837 143.413 187.373 143.043 186.994 142.595C186.616 142.146 186.329 141.627 186.152 141.068L173.273 107.625C172.993 107.099 172.829 106.521 172.79 105.927C172.751 105.334 172.839 104.739 173.047 104.182C173.255 103.625 173.58 103.118 173.998 102.695C174.417 102.273 174.92 101.944 175.475 101.73C176.03 101.517 176.625 101.424 177.218 101.457C177.812 101.49 178.392 101.649 178.92 101.923C179.448 102.197 179.912 102.58 180.281 103.046C180.65 103.513 180.915 104.053 181.06 104.629L193.939 138.073C194.429 139.139 194.479 140.355 194.077 141.457C193.676 142.559 192.856 143.459 191.796 143.96H191.768ZM216.104 155.417C213.96 156.25 211.424 154.949 210.488 152.525L197.674 119.072C197.395 118.547 197.231 117.968 197.192 117.375C197.153 116.781 197.241 116.186 197.449 115.629C197.657 115.072 197.981 114.565 198.4 114.143C198.818 113.72 199.322 113.391 199.877 113.178C200.432 112.964 201.026 112.871 201.62 112.904C202.214 112.937 202.794 113.096 203.322 113.37C203.85 113.644 204.313 114.027 204.682 114.494C205.051 114.96 205.317 115.5 205.462 116.077L218.341 149.511C219.277 151.954 218.294 154.64 216.141 155.417H216.104ZM240.44 166.873C238.296 167.706 235.76 166.405 234.824 163.981L222.019 130.538C221.742 130.013 221.579 129.435 221.541 128.843C221.503 128.251 221.591 127.657 221.8 127.101C222.008 126.545 222.331 126.04 222.749 125.618C223.167 125.196 223.669 124.868 224.223 124.654C224.776 124.44 225.369 124.346 225.962 124.378C226.555 124.41 227.134 124.567 227.661 124.839C228.189 125.112 228.653 125.492 229.023 125.957C229.393 126.421 229.66 126.958 229.807 127.533L242.696 160.977C243.181 162.052 243.222 163.276 242.808 164.381C242.394 165.486 241.559 166.382 240.487 166.873H240.44Z" fill="#FAFAFA"/>
<path d="M256.605 135.499L309.957 104.704L297.64 159.198L244.297 189.993L256.605 135.499Z" fill="#E0E0E0"/>
</svg>
