<svg width="328" height="226" viewBox="0 0 328 226" fill="none" xmlns="http://www.w3.org/2000/svg">
<path d="M139.38 175.357H111.051V236.419H139.38V175.357Z" fill="#D6B066"/>
<path opacity="0.7" d="M139.38 175.357H111.051V236.419H139.38V175.357Z" fill="white"/>
<path opacity="0.5" d="M139.381 175.357H130.984V236.419H139.381V175.357Z" fill="white"/>
<path d="M177.074 129.069H148.75V236.419H177.074V129.069Z" fill="#D6B066"/>
<path opacity="0.7" d="M177.074 129.069H148.75V236.419H177.074V129.069Z" fill="white"/>
<path opacity="0.5" d="M177.08 129.069H168.684V236.419H177.08V129.069Z" fill="white"/>
<path d="M214.785 163.956H186.455V236.419H214.785V163.956Z" fill="#D6B066"/>
<path opacity="0.7" d="M214.785 163.956H186.455V236.419H214.785V163.956Z" fill="white"/>
<path opacity="0.5" d="M214.785 163.956H206.389V236.419H214.785V163.956Z" fill="white"/>
<path d="M252.486 104.759H224.156V236.414H252.486V104.759Z" fill="#D6B066"/>
<path opacity="0.7" d="M252.486 104.759H224.156V236.414H252.486V104.759Z" fill="white"/>
<path opacity="0.5" d="M252.485 104.759H244.088V236.414H252.485V104.759Z" fill="white"/>
<path d="M290.18 125.94H261.855V236.419H290.18V125.94Z" fill="#D6B066"/>
<path opacity="0.7" d="M290.18 125.94H261.855V236.419H290.18V125.94Z" fill="white"/>
<path opacity="0.5" d="M290.186 125.94H281.789V236.419H290.186V125.94Z" fill="white"/>
<path d="M327.89 85.9968H299.561V236.419H327.89V85.9968Z" fill="#D6B066"/>
<path opacity="0.7" d="M327.89 85.9968H299.561V236.419H327.89V85.9968Z" fill="white"/>
<path opacity="0.5" d="M327.891 85.9968H319.494V236.419H327.891V85.9968Z" fill="white"/>
<path d="M151.6 111.384H166.254L197.127 160.107H182.467L151.6 111.384Z" fill="#D6B066"/>
<path opacity="0.1" d="M151.6 111.384H166.254L197.127 160.107H182.467L151.6 111.384Z" fill="black"/>
<path d="M230.74 83.9143H245.4L276.267 132.643H261.613L230.74 83.9143Z" fill="#D6B066"/>
<path opacity="0.1" d="M230.74 83.9143H245.4L276.267 132.643H261.613L230.74 83.9143Z" fill="black"/>
<path d="M166.239 111.384H151.579L111.051 175.357H125.705L166.239 111.384Z" fill="#D6B066"/>
<path d="M245.426 83.9143H230.767L182.494 160.107H197.148L245.426 83.9143Z" fill="#D6B066"/>
<path d="M324.468 56.4448H309.813L261.541 132.643H276.195L324.468 56.4448Z" fill="#D6B066"/>
<path d="M306.41 56.4448H327.933L322.411 46.2661L306.41 56.4448Z" fill="#D6B066"/>
<path d="M17.5052 8.4834H16.416V58.8378H17.5052V8.4834Z" fill="#263238"/>
<path d="M16.9607 9.02789C16.1541 9.0322 15.3643 8.79696 14.6916 8.35197C14.0188 7.90698 13.4933 7.27228 13.1816 6.5283C12.8699 5.78433 12.7862 4.96457 12.9409 4.17293C13.0956 3.38129 13.4818 2.65339 14.0507 2.0815C14.6195 1.5096 15.3453 1.11946 16.1361 0.960501C16.9269 0.801544 17.7471 0.880932 18.4928 1.18861C19.2384 1.49628 19.8759 2.0184 20.3245 2.68877C20.7731 3.35915 21.0126 4.1476 21.0126 4.95422C21.0097 6.02999 20.5826 7.0612 19.824 7.82393C19.0653 8.58665 18.0364 9.01928 16.9607 9.02789ZM16.9607 1.96977C16.3695 1.96546 15.7904 2.13682 15.2967 2.46212C14.8031 2.78742 14.4172 3.25201 14.1879 3.79695C13.9587 4.34189 13.8965 4.94264 14.0092 5.52299C14.1219 6.10335 14.4044 6.63716 14.8209 7.05672C15.2374 7.47629 15.7691 7.7627 16.3486 7.87963C16.9281 7.99656 17.5293 7.93875 18.0759 7.71352C18.6225 7.48829 19.0899 7.10579 19.4188 6.61453C19.7477 6.12328 19.9233 5.54542 19.9234 4.95422C19.9234 4.16646 19.6119 3.41064 19.0569 2.85156C18.502 2.29249 17.7484 1.97552 16.9607 1.96977Z" fill="#263238"/>
<path d="M66.77 1.42529H27.6562V3.18982H66.77V1.42529Z" fill="#263238"/>
<path d="M49.8 4.9541H27.6562V6.71863H49.8V4.9541Z" fill="#263238"/>
<path d="M167.283 15.0078H158.863V23.4274H167.283V15.0078Z" fill="#D6B066"/>
<path d="M211.766 15.0078H172.652V16.7723H211.766V15.0078Z" fill="#263238"/>
<path d="M194.796 18.5366H172.652V20.3011H194.796V18.5366Z" fill="#263238"/>
<path d="M167.283 32.1736H158.863V40.5932H167.283V32.1736Z" fill="#37474F"/>
<path d="M211.766 32.1736H172.652V33.9381H211.766V32.1736Z" fill="#263238"/>
<path d="M194.796 35.7031H172.652V37.4677H194.796V35.7031Z" fill="#263238"/>
<path d="M167.283 49.3508H158.863V57.7705H167.283V49.3508Z" fill="#C7C7C7"/>
<path d="M211.766 49.3508H172.652V51.1154H211.766V49.3508Z" fill="#263238"/>
<path d="M194.796 52.8796H172.652V54.6442H194.796V52.8796Z" fill="#263238"/>
<path d="M167.283 66.5166H158.863V74.9362H167.283V66.5166Z" fill="#455A64"/>
<path d="M211.766 66.5166H172.652V68.2811H211.766V66.5166Z" fill="#263238"/>
<path d="M194.796 70.0459H172.652V71.8104H194.796V70.0459Z" fill="#263238"/>
<path d="M3.02939 88.9983H3.19277H3.34526L6.38417 87.9091H6.56934L8.30119 87.2991L8.50814 87.2337L11.2639 86.2752L11.4817 86.1881L13.17 85.5999L13.4205 85.5237L16.5901 84.4345L16.8515 84.3473L18.7577 83.6829L19.0517 83.5849L21.4262 82.7571L21.7421 82.6482L23.8225 81.9184L24.1602 81.8095L27.0357 80.8074L27.3298 80.6985L29.5082 79.936L29.7914 79.838L31.8936 79.1082L32.1441 79.0211L34.5404 78.1824L34.7691 78.0952L36.8495 77.3763L37.0565 77.311L39.9756 76.2871L40.1934 76.2218L43.265 75.1326L43.4284 75.0672L45.7811 74.2503H45.9336L48.9834 73.1611H49.1141L51.6846 72.2679H51.8044L54.4948 71.3312L51.9351 70.5034H51.8262L48.8636 69.5558H48.7328L46.195 68.7389H46.0534L42.7857 67.6497H42.6006L40.4221 66.9526L40.2261 66.8872L35.4662 65.3514L35.2266 65.2752L34.0829 64.4692L33.8324 64.3929L29.1814 62.8898L28.8982 62.8027L27.8744 62.4759L27.5694 62.3887L22.7986 60.8747L22.4283 60.7658L21.3391 60.4173L20.9905 60.3083L15.9693 58.6854L15.5989 58.5765L15.0216 58.3913L14.6731 58.2715L9.13988 56.4961L8.81312 56.3872L8.31208 56.2238L8.01799 56.1367L2.49568 54.3503C2.49568 54.5028 2.39764 54.6553 2.35408 54.8187C2.35408 54.9494 2.26694 55.0801 2.23426 55.2108V55.3197C2.1798 55.4722 2.13624 55.6356 2.09267 55.7881C1.00141 59.6999 0.32599 63.7159 0.0776173 67.7695V68.2596C-0.0258724 70.1135 -0.0258724 71.9717 0.0776173 73.8255C0.0776173 74.1849 0.0776188 74.5335 0.142972 74.9147C0.525613 79.7096 1.49499 84.4394 3.02939 88.9983Z" fill="#C7C7C7"/>
<path d="M51.9452 70.2419L51.8145 72.0064H51.6947L51.8363 70.1656L51.9452 70.2419ZM48.7429 69.218L48.9934 72.9867H49.1241L48.8736 69.3052L48.7429 69.218ZM45.7911 74.1086H45.9436L46.205 68.4556H46.0634L45.7911 74.1086ZM42.6433 67.2574L43.275 74.9909L43.4384 74.9255L42.8285 67.301L42.6433 67.2574ZM39.9856 76.1236L40.2034 76.0583L40.4758 66.5603L40.2797 66.495L39.9856 76.1236ZM35.5198 64.9592L35.2802 64.8829L36.0862 71.1568L36.8596 77.2129L37.0665 77.1475L36.2605 71.1242L35.5198 64.9592ZM34.5504 78.0298L34.7792 77.9426L34.0821 64.469L33.8315 64.3928L34.5504 78.0298ZM29.1915 62.9333L28.9083 62.8461L31.9036 78.9447L32.1542 78.8576L29.1915 62.9333ZM27.5468 62.4104L29.4856 79.7725L29.7688 79.6745L27.8517 62.4976L27.5468 62.4104ZM22.7651 60.8637L22.3948 60.7548L27.0022 80.6439L27.2962 80.535L22.7651 60.9291V60.8637ZM21.0115 60.2974L23.8217 81.7549L24.1593 81.646L21.36 60.4063L21.0115 60.2974ZM15.5654 58.5655L21.3709 82.5936L21.6868 82.4847L15.9902 58.6744L15.5654 58.5655ZM14.6396 58.2605L18.7023 83.5194L18.9964 83.4214L14.9881 58.3694L14.6396 58.2605ZM8.7796 56.3762L16.5348 84.271L16.7962 84.1838L9.16082 56.4851L8.7796 56.3762ZM7.98447 56.1257L13.1147 85.4582L13.3652 85.382L8.33302 56.2128L7.98447 56.1257ZM2.22252 55.2216L11.2085 86.1335L11.4264 86.0464L2.3968 54.8186C2.3968 54.9493 2.30966 55.08 2.27698 55.2107L2.22252 55.2216ZM2.04825 55.8098L8.24588 87.1574L8.45283 87.092L2.24431 55.3414C2.18985 55.4939 2.14628 55.6573 2.10271 55.8098H2.04825ZM0.0549838 68.2813L6.38332 87.8218H6.56849L0.0332031 67.8456V68.3358L0.0549838 68.2813ZM0.142123 74.9146L3.19192 88.9219H3.34441L0.0767686 73.8799C0.0876607 74.2066 0.109447 74.5552 0.142123 74.9146Z" fill="#DBDBDB"/>
<path d="M3.0293 88.9982L7.39705 88.5298L58.8625 70.6013L54.5056 71.0697L3.0293 88.9982Z" fill="#A6A6A6"/>
<path d="M54.5066 71.0694L58.8635 70.601L6.89705 53.8816L2.5293 54.35L54.5066 71.0694Z" fill="#A6A6A6"/>
<path d="M83.2929 15.0293L83.6523 71.1021L31.0215 54.1103C38.439 30.507 58.8836 15.1927 83.2929 15.0293Z" fill="#37474F"/>
<path d="M81.8559 15.0515L83.2936 17.4914V17.8181L81.6598 15.0624L81.8559 15.0515ZM79.819 15.1604L83.3372 22.981V22.5453L80.0696 15.1386L79.819 15.1604ZM73.7085 15.8902L83.3917 31.7927V31.3571L73.9373 15.8575L73.7085 15.8902ZM72.4015 16.1407L83.4461 39.744V39.1885L72.6193 16.108C72.5459 16.1128 72.473 16.1237 72.4015 16.1407ZM76.1048 35.4634L83.4897 46.3556V45.9525L76.3444 35.3763L67.6961 22.5344L64.7988 18.2538C64.7093 18.2799 64.6219 18.3126 64.5373 18.3518L67.4673 22.7087L76.1048 35.4634ZM63.8838 18.5915L83.4897 52.9889V52.3789L64.1452 18.4825L63.8838 18.5915ZM57.2614 21.6195L83.5442 56.0822V55.5594L57.5555 21.4561L57.2614 21.6195ZM56.6623 21.9462L83.5986 63.1839V62.5304L56.9564 21.7829C56.8672 21.8636 56.7685 21.9331 56.6623 21.9898V21.9462ZM50.9548 25.6387L83.6313 64.8504V64.2731L51.2816 25.4099L50.9548 25.6387ZM50.2904 26.1506L80.1458 69.9697L80.7884 70.1767L50.6063 25.911C50.4939 25.9811 50.3882 26.0613 50.2904 26.1506ZM45.3672 30.3986L78.5555 69.4578L79.3071 69.6974L45.6504 30.1263C45.5614 30.2225 45.4668 30.3134 45.3672 30.3986ZM44.8335 30.9432L70.9746 67.0071L71.5519 67.1922L45.1058 30.7035L44.8335 30.9432ZM40.5528 35.7902L68.1209 66.0812L68.7962 66.31L40.7598 35.5288L40.5528 35.7902ZM39.8775 36.6833L59.7993 63.38L60.3003 63.5434L40.0845 36.411C40.0082 36.4982 39.9429 36.5962 39.8775 36.6833ZM36.4683 41.8026L55.2246 61.9204L55.7801 62.1056L36.6099 41.5957C36.5577 41.6612 36.5104 41.7303 36.4683 41.8026ZM35.9563 42.6849L49.5497 60.1123L49.9637 60.243L36.087 42.4453C36.0389 42.5226 35.9953 42.6026 35.9563 42.6849ZM33.1026 48.4686L42.2956 57.7596L42.7966 57.9339L33.2224 48.2726C33.1784 48.3353 33.1384 48.4008 33.1026 48.4686ZM32.6016 49.6668L38.0476 56.3872L38.3962 56.507L32.6669 49.4489C32.6406 49.5201 32.6188 49.5929 32.6016 49.6668Z" fill="#263238"/>
<path d="M83.6524 71.1023L136.283 88.0832C132.84 99.3022 125.92 109.136 116.522 116.165C107.125 123.194 95.7357 127.053 84.001 127.186C78.2 127.216 72.4312 126.323 66.9112 124.539C49.4838 118.908 36.9905 106.404 31.2285 88.7694L83.6524 71.1023Z" fill="#D6B066"/>
<path d="M136.284 88.083H140.641C137.198 99.3009 130.277 109.134 120.879 116.161C111.481 123.188 100.093 127.045 88.3588 127.175H84.002C95.7353 127.043 107.123 123.185 116.521 116.159C125.918 109.132 132.839 99.3001 136.284 88.083Z" fill="#D6B066"/>
<g opacity="0.1">
<path d="M136.284 88.083H140.641C137.198 99.3009 130.277 109.134 120.879 116.161C111.481 123.188 100.093 127.045 88.3588 127.175H84.002C95.7353 127.043 107.123 123.185 116.521 116.159C125.918 109.132 132.839 99.3001 136.284 88.083Z" fill="black"/>
</g>
<path opacity="0.1" d="M133.909 87.3425L134.508 92.9628C134.513 92.9844 134.513 93.0066 134.508 93.0282L133.898 87.3316L133.909 87.3425ZM127.875 85.3928L132.297 97.6682L127.94 85.4581L127.875 85.3928ZM125.697 84.7066L128.376 103.953V103.877L125.697 84.7284V84.7066ZM121.895 83.4758L127.516 105.14V105.064L121.928 83.5193L121.895 83.4758ZM120.414 83.0074L123.398 110.02L123.485 109.922L120.566 82.9856L120.414 83.0074ZM115.926 81.5587L122.462 110.968L122.56 110.87L116.024 81.6241L115.926 81.5587ZM114.837 81.1993L117.484 115.39L117.625 115.292L114.979 81.2429L114.837 81.1993ZM110.731 79.8813L110.546 79.816L116.689 116.011L116.83 115.902L110.731 79.8813ZM109.108 79.3585L109.576 120.607L109.761 120.498L109.293 79.413L109.108 79.3585ZM104.413 77.8445L104.174 77.7574L108.966 120.923L109.162 120.825L104.413 77.8445ZM102.736 123.722L102.997 123.624L103.357 77.5069L103.139 77.4197L102.736 123.722ZM98.7058 76.0037L98.4335 75.9057L102.268 123.897L102.507 123.809L98.7058 76.0037ZM96.168 125.726C96.2709 125.711 96.3727 125.689 96.4729 125.661L97.9978 75.7097L97.7146 75.6225L96.168 125.726ZM92.4102 73.9124L92.0725 73.8035L95.6125 125.857L95.9174 125.792L92.4102 73.9124ZM87.0948 72.1915L86.7027 72.0717L88.5543 126.968H88.9138H89.2732L91.6041 73.7164L91.2665 73.6075L88.9138 126.903L87.0948 72.1915ZM80.5595 72.1915L80.2001 72.3004L81.4962 127.153H81.8339H82.2151L86.2452 71.8974L85.8531 71.7776L81.8666 126.794L80.5595 72.1915ZM74.5362 126.413L74.852 126.467L79.8624 72.4202L79.503 72.54L74.5362 126.413ZM75.255 73.9778L74.2312 126.358H74.5362L75.5491 73.8253L75.255 73.9778ZM66.9116 124.528H66.9988H67.1622L74.9065 74.0105L74.5906 74.1194L66.9116 124.528ZM66.7592 122.197L66.5849 124.463L66.8463 124.55L67.0206 122.208L67.587 114.845L68.6762 100.108L70.5387 75.5681L70.2991 75.6552L68.4148 100.097L67.3255 114.823L66.7592 122.197ZM58.7316 121.239L58.9277 121.337L69.7218 75.8621L69.4604 75.9493L58.7316 121.239ZM63.3935 77.997L58.0454 120.858L58.2415 120.956L63.546 77.8772L63.3935 77.997ZM52.5013 117.634L52.6429 117.732L62.6855 78.2257L62.4785 78.2911L52.5013 117.634ZM49.3099 82.7787L45.6828 112.187C45.7241 112.214 45.7608 112.247 45.7918 112.285L49.408 82.7242L49.3099 82.7787ZM40.5962 106.556L40.6616 106.643L48.2861 83.1381H48.1772L40.5962 106.556ZM56.6186 80.3279L51.5101 116.915C51.552 116.954 51.5997 116.988 51.6517 117.013L56.6839 80.1754L56.6186 80.3279ZM46.4453 112.885L46.5433 112.961L51.9894 93.9758L55.3878 81.9944L55.7799 80.6111H55.6274L55.2026 81.8964L51.8042 93.8778L46.4453 112.885ZM44.5283 84.2927L39.9863 105.707C39.9842 105.736 39.9842 105.765 39.9863 105.794L44.5501 84.2709L44.5283 84.2927ZM37.0889 101.502C37.0815 101.523 37.0815 101.546 37.0889 101.568L43.548 84.663H43.4717L37.0889 101.502ZM40.0516 85.8502L36.4027 100.369V100.435L40.0625 85.8394L40.0516 85.8502ZM34.7798 87.6366L32.7974 93.0826L34.7907 87.6366H34.7798ZM31.3379 89.0961C31.4286 88.9531 31.5268 88.8149 31.632 88.6822L31.3379 89.0961Z" fill="black"/>
<path d="M83.293 15.0295C113.791 14.8334 138.669 39.7764 138.843 70.7428C138.931 76.6248 138.059 82.4817 136.261 88.0831L83.6306 71.1022L83.293 15.0295Z" fill="#455A64"/>
<path d="M132.003 44.0134L132.189 44.3729L83.577 59.8833V59.4585L132.003 44.0134ZM132.33 44.6343L83.6206 65.5581V65.9502L132.505 44.9719C132.453 44.8561 132.395 44.7434 132.33 44.6343ZM83.5443 53.348V53.7292L128.202 38.0554C128.135 37.9379 128.054 37.8283 127.962 37.7287L83.5443 53.348ZM128.442 38.3277L83.5661 58.097V58.5436L128.649 38.6545C128.594 38.5238 128.507 38.4149 128.442 38.3277ZM83.4463 39.8962V40.1576L117.484 26.8256L117.256 26.6405L83.4463 39.8962ZM118.225 27.4356L83.479 44.6452V44.9719L118.454 27.5445C118.381 27.5011 118.304 27.4646 118.225 27.4356ZM83.4899 46.1701V46.486L123.159 31.9776C123.081 31.8888 122.997 31.8051 122.909 31.7271L83.4899 46.1701ZM123.791 32.6094L83.5334 51.9429V52.3242L123.987 32.8054C123.911 32.7292 123.834 32.642 123.747 32.5658L123.791 32.6094ZM83.3591 26.3464V26.4989L100.863 17.8505H100.667L83.3591 26.3464ZM102.965 18.5912L83.4354 30.5725V30.7032L103.172 18.6129L102.965 18.5912ZM83.4027 33.1104V33.3174L110.491 22.0984C110.415 22.0485 110.335 22.0048 110.252 21.9677L83.4027 33.1104ZM111.788 22.8609L83.4681 38.0337V38.3277L112.027 23.0134L111.788 22.8609ZM83.3265 19.8111V19.92L91.4629 15.5631H91.2995L83.3265 19.8111ZM94.8068 16.1731L83.3483 24.0263V24.1679L94.9811 16.1949C94.9235 16.1851 94.8651 16.1815 94.8068 16.184V16.1731ZM83.3047 16.9791V17.0772L86.0277 15.073H85.8861L83.3047 16.9791ZM138.648 76.0799L116.362 81.6676L116.646 81.7656L138.648 76.2542C138.648 76.2542 138.648 76.1453 138.648 76.0799ZM108.466 79.1188L108.879 79.2495L138.702 75.263C138.702 75.1977 138.702 75.1432 138.702 75.0779L108.466 79.1188ZM137.558 83.3232L128.758 85.6541L128.965 85.7195L137.537 83.4539C137.549 83.4114 137.557 83.3675 137.558 83.3232ZM124.248 84.2055L124.553 84.3035L137.624 82.9311C137.629 82.8877 137.629 82.8438 137.624 82.8004L124.248 84.2055ZM138.811 68.4881L104.065 77.692L104.425 77.8009L138.811 68.7059V68.4881ZM94.0443 74.4461L94.5672 74.6204L138.778 67.9871C138.784 67.9109 138.784 67.8345 138.778 67.7583L94.0443 74.4461ZM114.293 66.5493L91.6699 73.6837L92.0838 73.8253L114.38 66.7998L129.095 62.1598L136.469 59.8506L137.689 59.4694C137.689 59.3823 137.689 59.2951 137.689 59.1971L136.447 59.5892L129.084 61.9092L114.293 66.5493ZM84.1869 71.2765L84.7425 71.4508L137.558 59.0773C137.546 58.9891 137.527 58.9018 137.504 58.8159L84.1869 71.2765ZM135.38 51.5072L83.6859 71.1131L84.1434 71.2547L135.5 51.8231C135.47 51.7144 135.429 51.6087 135.38 51.5072ZM83.6097 66.3968V66.7671L135.38 51.3983C135.352 51.289 135.311 51.1831 135.26 51.0824L83.6097 66.3968Z" fill="#37474F"/>
<path d="M83.293 15.0296H87.6498C118.148 14.8226 143.036 39.7657 143.2 70.7321C143.29 76.6186 142.414 82.4801 140.607 88.0833H136.251C138.048 82.4818 138.92 76.6249 138.832 70.743C138.647 39.7766 113.78 14.8335 83.293 15.0296Z" fill="#37474F"/>
<path d="M275.293 74.6733C275.294 77.7965 274.427 80.8585 272.788 83.5174C271.15 86.1763 268.805 88.3276 266.015 89.731C263.224 91.1344 260.099 91.7347 256.988 91.465C253.876 91.1953 250.901 90.0661 248.394 88.2035L240.137 90.3117L243.576 82.6246C242.367 80.3652 241.689 77.8598 241.594 75.299C241.498 72.7381 241.988 70.1893 243.026 67.8461C244.063 65.503 245.622 63.4273 247.582 61.7769C249.542 60.1265 251.853 58.9448 254.339 58.3216C256.825 57.6985 259.42 57.6503 261.927 58.1807C264.434 58.7112 266.787 59.8063 268.807 61.3828C270.828 62.9593 272.462 64.9758 273.586 67.2787C274.71 69.5817 275.294 72.1107 275.293 74.6733Z" fill="white"/>
<path d="M275.293 74.6733C275.291 77.7967 274.425 80.8587 272.791 83.5208C272.386 84.1836 271.94 84.8202 271.455 85.427C270.951 86.0177 270.413 86.5781 269.844 87.1053C269.564 87.376 269.27 87.6319 268.963 87.872L268.036 88.5868C267.725 88.8199 267.378 89.0012 267.052 89.2136L266.534 89.5192C266.363 89.6176 266.187 89.6953 266.016 89.7834L264.98 90.3014L263.882 90.7106C263.519 90.8503 263.147 90.9645 262.768 91.0525C262.39 91.1405 262.017 91.2701 261.633 91.327C260.868 91.4786 260.092 91.5738 259.313 91.6119C258.534 91.6741 257.751 91.6741 256.971 91.6119C253.83 91.364 250.82 90.2446 248.279 88.3796L248.435 88.4107L240.188 90.5345L239.732 90.6536L239.924 90.2185L243.343 82.521V82.7438C242.103 80.4565 241.415 77.911 241.333 75.3105C241.206 72.0715 242.01 68.864 243.651 66.0685C245.292 63.273 247.701 61.0068 250.591 59.5389C253.481 58.071 256.731 57.4628 259.957 57.7867C263.182 58.1105 266.246 59.3527 268.787 61.3659C270.809 62.9464 272.445 64.9654 273.572 67.2707C274.699 69.576 275.287 72.1073 275.293 74.6733ZM275.293 74.6733C275.296 72.1187 274.713 69.5974 273.59 67.3031C272.466 65.0089 270.832 63.0026 268.812 61.4385C266.792 59.8744 264.441 58.794 261.938 58.2803C259.436 57.7667 256.849 57.8335 254.376 58.4755C251.92 59.105 249.64 60.2867 247.71 61.9305C245.8 63.5863 244.274 65.6386 243.239 67.9445C242.226 70.2566 241.751 72.7687 241.851 75.2912C241.95 77.8136 242.622 80.2805 243.814 82.5055L243.876 82.6143L243.825 82.7231L240.364 90.405L240.105 90.0942L248.393 88.0222H248.476L248.549 88.0792C251.02 89.9399 253.959 91.077 257.039 91.3633C257.805 91.4375 258.576 91.4496 259.344 91.3995C260.115 91.3685 260.884 91.2855 261.644 91.1509C262.027 91.0991 262.395 90.9748 262.768 90.8867C263.147 90.8089 263.519 90.7015 263.882 90.5656L264.969 90.1771L266.005 89.685C266.176 89.5969 266.358 89.5244 266.523 89.4312L267.041 89.1307C267.373 88.9287 267.715 88.7474 268.031 88.5195L268.963 87.8305C269.268 87.5939 269.56 87.3415 269.839 87.0743C270.412 86.5533 270.952 85.9961 271.455 85.4063C271.941 84.8049 272.389 84.1734 272.796 83.5156C274.429 80.8554 275.294 77.7948 275.293 74.6733Z" fill="#263238"/>
<path d="M255.707 84.7017L248.154 77.0561L250.687 74.5489L255.101 79.0141L264.269 64.6448L267.279 66.5614L255.707 84.7017Z" fill="#D6B066"/>
</svg>
