<svg width="918" height="152" viewBox="0 0 918 152" fill="none" xmlns="http://www.w3.org/2000/svg">
<path d="M69.2 35.3C65 33 60.7 31.1 56.3 29.6C52 28.1 47.95 27.35 44.15 27.35C39.45 27.35 35.75 28.3 33.05 30.2C30.35 32.1 29 34.95 29 38.75C29 41.35 30 43.7 32 45.8C34.1 47.8 36.75 49.6 39.95 51.2C43.25 52.8 46.65 54.25 50.15 55.55C53.35 56.75 56.5 58.2 59.6 59.9C62.8 61.5 65.65 63.55 68.15 66.05C70.65 68.45 72.65 71.5 74.15 75.2C75.65 78.8 76.4 83.25 76.4 88.55C76.4 94.15 74.95 99.35 72.05 104.15C69.15 108.95 64.9 112.85 59.3 115.85C53.7 118.75 46.8 120.2 38.6 120.2C34.4 120.2 30.1 119.8 25.7 119C21.4 118.1 17.15 116.8 12.95 115.1C8.75 113.3 4.7 111.05 0.8 108.35L10.4 91.4C13 93.3 15.8 95 18.8 96.5C21.9 97.9 25 99 28.1 99.8C31.2 100.6 34.05 101 36.65 101C39.25 101 41.85 100.65 44.45 99.95C47.15 99.15 49.35 97.85 51.05 96.05C52.85 94.25 53.75 91.75 53.75 88.55C53.75 86.35 53 84.35 51.5 82.55C50.1 80.75 48.15 79.1 45.65 77.6C43.25 76.1 40.6 74.8 37.7 73.7C34.3 72.4 30.8 70.9 27.2 69.2C23.6 67.5 20.2 65.45 17 63.05C13.9 60.55 11.35 57.5 9.35 53.9C7.45 50.2 6.5 45.7 6.5 40.4C6.5 34 7.9 28.45 10.7 23.75C13.6 19.05 17.65 15.35 22.85 12.65C28.05 9.84999 34.05 8.29999 40.85 8C49.75 8 56.95 9.05 62.45 11.15C68.05 13.25 73.05 15.75 77.45 18.65L69.2 35.3ZM149.901 113.15C147.001 115.45 143.351 117.3 138.951 118.7C134.651 120.1 130.401 120.8 126.201 120.8C118.701 120.8 112.151 119.45 106.551 116.75C101.051 113.95 96.7512 110 93.6512 104.9C90.6512 99.7 89.1512 93.45 89.1512 86.15C89.1512 78.85 90.8012 72.65 94.1012 67.55C97.4012 62.35 101.701 58.4 107.001 55.7C112.401 53 118.051 51.65 123.951 51.65C129.851 51.65 134.951 52.45 139.251 54.05C143.651 55.65 147.401 57.75 150.501 60.35L140.301 73.85C138.901 72.75 136.951 71.65 134.451 70.55C132.051 69.35 129.201 68.75 125.901 68.75C123.001 68.75 120.351 69.5 117.951 71C115.551 72.5 113.651 74.55 112.251 77.15C110.851 79.75 110.151 82.75 110.151 86.15C110.151 89.35 110.901 92.3 112.401 95C113.901 97.7 115.951 99.85 118.551 101.45C121.251 102.95 124.401 103.7 128.001 103.7C130.301 103.7 132.401 103.4 134.301 102.8C136.301 102.1 138.001 101.15 139.401 99.95L149.901 113.15ZM193.629 120.8C187.529 120.8 181.979 119.6 176.979 117.2C172.079 114.7 168.179 110.9 165.279 105.8C162.379 100.7 160.929 94.2 160.929 86.3C160.929 78.9 162.429 72.5 165.429 67.1C168.429 61.7 172.379 57.55 177.279 54.65C182.179 51.65 187.379 50.15 192.879 50.15C199.379 50.15 204.279 51.25 207.579 53.45C210.979 55.55 213.779 57.9 215.979 60.5L215.079 63.05L217.029 53.45H236.529V119H215.529V104.75L217.179 109.25C216.979 109.25 216.379 109.85 215.379 111.05C214.379 112.15 212.879 113.5 210.879 115.1C208.979 116.6 206.579 117.9 203.679 119C200.879 120.2 197.529 120.8 193.629 120.8ZM199.629 103.7C202.129 103.7 204.379 103.35 206.379 102.65C208.379 101.85 210.129 100.75 211.629 99.35C213.129 97.85 214.429 96 215.529 93.8V77.75C214.729 75.55 213.529 73.7 211.929 72.2C210.329 70.6 208.429 69.4 206.229 68.6C204.029 67.7 201.579 67.25 198.879 67.25C195.879 67.25 193.079 68.05 190.479 69.65C187.979 71.15 185.979 73.25 184.479 75.95C182.979 78.65 182.229 81.75 182.229 85.25C182.229 88.75 183.029 91.9 184.629 94.7C186.229 97.5 188.329 99.7 190.929 101.3C193.629 102.9 196.529 103.7 199.629 103.7ZM258.167 0.649995H279.167V119H258.167V0.649995ZM300.794 53.45H321.794V119H300.794V53.45ZM300.344 30.2C300.344 27.1 301.544 24.55 303.944 22.55C306.444 20.55 309.094 19.55 311.894 19.55C314.694 19.55 317.244 20.55 319.544 22.55C321.944 24.55 323.144 27.1 323.144 30.2C323.144 33.3 321.944 35.85 319.544 37.85C317.244 39.75 314.694 40.7 311.894 40.7C309.094 40.7 306.444 39.75 303.944 37.85C301.544 35.85 300.344 33.3 300.344 30.2ZM362.471 53.45L364.121 65.15L363.821 64.1C366.121 60 369.371 56.7 373.571 54.2C377.771 51.6 382.921 50.3 389.021 50.3C395.221 50.3 400.371 52.15 404.471 55.85C408.671 59.45 410.821 64.15 410.921 69.95V119H389.921V77.75C389.821 74.85 389.021 72.55 387.521 70.85C386.121 69.05 383.721 68.15 380.321 68.15C377.121 68.15 374.321 69.2 371.921 71.3C369.521 73.4 367.671 76.25 366.371 79.85C365.071 83.45 364.421 87.6 364.421 92.3V119H343.421V53.45H362.471ZM466.384 152C460.484 152 455.484 151.3 451.384 149.9C447.384 148.5 443.984 146.8 441.184 144.8C438.384 142.8 435.884 140.9 433.684 139.1L445.984 124.7C448.284 126.8 450.934 128.8 453.934 130.7C457.034 132.7 461.084 133.7 466.084 133.7C469.384 133.7 472.434 133.1 475.234 131.9C478.134 130.8 480.434 129.15 482.134 126.95C483.934 124.75 484.834 122 484.834 118.7V104.3L485.584 108.05C483.984 111.45 481.084 114.45 476.884 117.05C472.684 119.55 467.184 120.8 460.384 120.8C454.484 120.8 448.984 119.3 443.884 116.3C438.884 113.2 434.884 109.05 431.884 103.85C428.884 98.55 427.384 92.55 427.384 85.85C427.384 78.95 428.984 72.85 432.184 67.55C435.384 62.15 439.534 57.9 444.634 54.8C449.734 51.7 455.134 50.15 460.834 50.15C466.534 50.15 471.434 51 475.534 52.7C479.734 54.3 482.884 56.3 484.984 58.7L484.234 60.65L486.484 53.45H505.834V119C505.834 125.4 504.034 131.05 500.434 135.95C496.834 140.95 492.034 144.85 486.034 147.65C480.134 150.55 473.584 152 466.384 152ZM448.534 85.25C448.534 88.75 449.334 91.9 450.934 94.7C452.534 97.5 454.684 99.7 457.384 101.3C460.184 102.9 463.284 103.7 466.684 103.7C469.584 103.7 472.134 103.35 474.334 102.65C476.634 101.85 478.634 100.75 480.334 99.35C482.134 97.85 483.634 96 484.834 93.8V77.75C483.934 75.55 482.584 73.7 480.784 72.2C478.984 70.6 476.884 69.4 474.484 68.6C472.184 67.7 469.584 67.25 466.684 67.25C463.284 67.25 460.184 68.05 457.384 69.65C454.684 71.15 452.534 73.25 450.934 75.95C449.334 78.65 448.534 81.75 448.534 85.25ZM580.655 6.34999C573.555 25.65 566.455 44.9 559.355 64.1C552.255 83.3 545.155 102.55 538.055 121.85H519.155C526.255 102.55 533.355 83.3 540.455 64.1C547.555 44.9 554.655 25.65 561.755 6.34999H580.655ZM593.99 119V4.1H594.14L655.49 91.1L646.19 89L707.39 4.1H707.69V119H685.94V53.15L687.29 64.4L649.94 117.5H649.64L611.24 64.4L614.99 54.05V119H593.99ZM768.627 8.59999C780.127 8.59999 789.277 10.95 796.077 15.65C802.877 20.25 806.277 27.15 806.277 36.35C806.277 43.15 804.577 48.85 801.177 53.45C797.877 57.95 793.327 61.35 787.527 63.65C781.827 65.85 775.277 66.95 767.877 66.95L764.427 55.25C773.527 55.25 781.577 56.5 788.577 59C795.677 61.5 801.277 65.1 805.377 69.8C809.477 74.4 811.527 79.95 811.527 86.45C811.527 92.45 810.427 97.55 808.227 101.75C806.127 105.85 803.227 109.2 799.527 111.8C795.927 114.3 791.827 116.15 787.227 117.35C782.627 118.45 777.877 119 772.977 119H736.227V8.59999H768.627ZM771.177 53.75C775.477 53.75 778.627 52.45 780.627 49.85C782.727 47.25 783.777 44.3 783.777 41C783.777 37.2 782.477 34.35 779.877 32.45C777.377 30.55 773.977 29.6 769.677 29.6H757.977V53.75H771.177ZM771.927 98.75C775.127 98.75 778.027 98.35 780.627 97.55C783.227 96.65 785.277 95.3 786.777 93.5C788.277 91.6 789.027 89.25 789.027 86.45C789.027 83.25 788.127 80.85 786.327 79.25C784.527 77.55 782.177 76.4 779.277 75.8C776.477 75.1 773.527 74.75 770.427 74.75H757.977V98.75H771.927ZM817.087 119L866.887 4.24999H868.087L917.887 119H892.687L860.887 38.3L876.637 27.5L838.537 119H817.087ZM851.137 79.1H884.287L891.937 97.4H844.387L851.137 79.1Z" fill="white" fill-opacity="0.02"/>
</svg>
