<svg width="113" height="31" viewBox="0 0 113 31" fill="none" xmlns="http://www.w3.org/2000/svg">
<g clip-path="url(#clip0_1_2)">
<mask id="mask0_1_2" style="mask-type:luminance" maskUnits="userSpaceOnUse" x="0" y="0" width="113" height="31">
<path d="M112.5 0.5H0.5V30.5H112.5V0.5Z" fill="white"/>
</mask>
<g mask="url(#mask0_1_2)">
<mask id="mask1_1_2" style="mask-type:luminance" maskUnits="userSpaceOnUse" x="0" y="0" width="113" height="31">
<path d="M112.5 0.5H0.5V30.5H112.5V0.5Z" fill="white"/>
</mask>
<g mask="url(#mask1_1_2)">
<path d="M57.1551 21.3852C57.1201 21.3502 57.0751 21.3252 57.0251 21.3252C56.9751 21.3152 56.9251 21.3402 56.8901 21.3702C55.0951 22.9852 52.7951 23.8702 50.4151 23.8702C45.2251 23.8702 41.0051 19.7702 41.0051 14.7302C41.0051 9.6902 45.2251 5.6502 50.4151 5.6502C52.8001 5.6502 55.1601 6.5702 56.8851 8.1802C56.9251 8.2152 56.9701 8.2302 57.0301 8.2302C57.0801 8.2302 57.1301 8.2002 57.1651 8.1602L57.9151 7.2002C57.9751 7.1202 57.9651 7.0102 57.8901 6.9452C55.8201 5.0952 53.1551 4.0752 50.3851 4.0752C44.3101 4.0752 39.3701 8.8702 39.3701 14.7602C39.3701 20.6502 44.3101 25.4752 50.3851 25.4752C53.1351 25.4752 55.8851 24.3952 57.9201 22.5152C57.9951 22.4452 58.0001 22.3302 57.9301 22.2502L57.1501 21.3802L57.1551 21.3852Z" fill="white"/>
<path d="M63.195 2.81494H61.94C61.835 2.81494 61.75 2.90001 61.75 3.00494V25.2599C61.75 25.3649 61.835 25.4499 61.94 25.4499H63.195C63.3 25.4499 63.385 25.3649 63.385 25.2599V3.00494C63.385 2.90001 63.3 2.81494 63.195 2.81494Z" fill="white"/>
<path d="M74.7148 9.41504C70.1398 9.41504 66.8198 12.785 66.8198 17.43C66.8198 22.075 70.1398 25.475 74.7148 25.475C79.2898 25.475 82.6098 22.09 82.6098 17.43C82.6098 12.77 79.2898 9.41504 74.7148 9.41504ZM74.7148 23.935C71.0098 23.935 68.4248 21.275 68.4248 17.465C68.4248 13.655 71.0098 10.995 74.7148 10.995C78.4198 10.995 81.0048 13.655 81.0048 17.465C81.0048 21.275 78.4198 23.935 74.7148 23.935Z" fill="white"/>
<path d="M90.295 16.45C88.17 15.81 86.335 15.26 86.335 13.44C86.335 11.865 87.725 10.93 90.045 10.93C91.445 10.93 92.815 11.315 93.905 12.01C93.95 12.04 94.005 12.045 94.055 12.035C94.105 12.02 94.15 11.99 94.175 11.94L94.715 10.92C94.76 10.83 94.73 10.725 94.645 10.67C93.275 9.83504 91.74 9.41504 90.08 9.41504C87.51 9.41504 84.765 10.495 84.765 13.53C84.765 16.565 87.455 17.315 89.825 18.055C91.94 18.715 93.94 19.335 93.885 21.29C93.77 23.77 90.81 23.96 89.9 23.96C87.98 23.96 86.12 23.255 84.81 22.03C84.77 21.99 84.715 21.97 84.655 21.98C84.6 21.99 84.55 22.02 84.52 22.07L83.95 23.03C83.905 23.105 83.92 23.2 83.98 23.26C85.445 24.665 87.585 25.47 89.84 25.47C92.43 25.47 95.455 24.32 95.455 21.08C95.455 17.84 92.715 17.17 90.295 16.44V16.45Z" fill="white"/>
<path d="M110.085 11.46C108.77 10.12 106.955 9.41504 104.835 9.41504C100.31 9.41504 97.0298 12.8 97.0298 17.46C97.0298 22.12 100.315 25.475 104.835 25.475C107.315 25.475 109.515 24.57 111.035 22.925C111.1 22.855 111.1 22.745 111.035 22.675L110.315 21.865C110.28 21.825 110.23 21.805 110.175 21.8C110.13 21.815 110.07 21.82 110.035 21.86C108.8 23.215 106.975 23.96 104.895 23.96C101.385 23.96 98.8948 21.565 98.6448 17.975H112.095C112.195 17.975 112.28 17.895 112.285 17.79C112.335 15.2 111.55 12.95 110.085 11.455V11.46ZM98.6848 16.49C99.0548 13.155 101.505 10.925 104.84 10.925C108.175 10.925 110.445 13.1 110.755 16.49H98.6848Z" fill="white"/>
<path d="M16.5 24.0054C7.53 24.0054 0.5 20.2704 0.5 15.5054C0.5 10.7404 7.53 7.00537 16.5 7.00537C25.47 7.00537 32.5 10.7404 32.5 15.5054C32.5 20.2704 25.47 24.0054 16.5 24.0054ZM16.5 9.50537C10.115 9.50537 3 11.9704 3 15.5054C3 19.0404 10.115 21.5054 16.5 21.5054C22.885 21.5054 30 19.0404 30 15.5054C30 11.9704 22.885 9.50537 16.5 9.50537Z" fill="#4EC375"/>
<path d="M21.9152 30.025C17.9052 30.025 12.7752 26.06 9.13521 19.755C7.07021 16.18 5.81521 12.405 5.59521 9.12001C5.35521 5.52001 6.38521 2.87001 8.49521 1.65001C10.6052 0.43001 13.4202 0.86501 16.4152 2.87001C19.1502 4.70501 21.7902 7.68001 23.8552 11.255C28.3402 19.025 28.6202 26.98 24.4952 29.36C23.7152 29.81 22.8452 30.025 21.9102 30.025H21.9152ZM11.1252 3.47501C10.6052 3.47501 10.1402 3.58501 9.75021 3.81501C8.52521 4.52001 7.92021 6.39501 8.09021 8.95501C8.28521 11.865 9.42521 15.26 11.3002 18.51C14.4902 24.04 20.1852 28.97 23.2452 27.2C26.3052 25.43 24.8852 18.04 21.6902 12.51C19.8152 9.26001 17.4452 6.57501 15.0252 4.95501C13.5752 3.98501 12.2252 3.48501 11.1202 3.48501L11.1252 3.47501Z" fill="#1463FF"/>
<path d="M11.1198 30.0402C10.1648 30.0402 9.2848 29.8152 8.4998 29.3602C6.3898 28.1402 5.35481 25.4902 5.5998 21.8902C5.8198 18.6052 7.07481 14.8302 9.13981 11.2552C13.6248 3.4852 20.3748 -0.7348 24.4998 1.6452C28.6248 4.0302 28.3448 11.9802 23.8598 19.7502C21.7948 23.3252 19.1548 26.3002 16.4198 28.1352C14.5398 29.3952 12.7298 30.0352 11.1198 30.0352V30.0402ZM21.8098 3.4452C18.6298 3.4452 14.0448 7.7502 11.2998 12.5002C9.4248 15.7502 8.2848 19.1402 8.0898 22.0552C7.9198 24.6152 8.5248 26.4852 9.7498 27.1952C10.9748 27.9002 12.8948 27.4902 15.0298 26.0602C17.4548 24.4352 19.8198 21.7502 21.6948 18.5052C24.8848 12.9752 26.3098 5.5802 23.2498 3.8152C22.8198 3.5652 22.3348 3.4502 21.8098 3.4502V3.4452Z" fill="#FFBC00"/>
<path d="M16.5 21.5054C10.115 21.5054 3 19.0404 3 15.5054H0.5C0.5 20.2704 7.53 24.0054 16.5 24.0054V21.5054Z" fill="#4EC375"/>
<path d="M17.0748 6.57979C16.4048 5.95979 15.7198 5.40979 15.0298 4.94479C14.3498 4.48979 13.6898 4.13479 13.0698 3.88979L13.8998 1.52979C14.7198 1.84479 15.5648 2.28979 16.4248 2.86979C17.3298 3.47979 18.2298 4.20979 19.0998 5.04979L17.0798 6.57979H17.0748Z" fill="#1463FF"/>
<path d="M19.0801 26.7454C18.0001 26.1654 16.8751 25.3004 15.7851 24.2554L13.8701 25.9204C14.9901 27.0054 16.1401 27.8954 17.2801 28.5654L19.0851 26.7454H19.0801Z" fill="#1463FF"/>
<path d="M28.02 12.445C25.46 10.625 20.815 9.5 16.5 9.5V7C21.525 7 25.94 8.17 28.855 10.04L28.02 12.445Z" fill="#4EC375"/>
</g>
</g>
</g>
<defs>
<clipPath id="clip0_1_2">
<rect width="112" height="30" fill="white" transform="translate(0.5 0.5)"/>
</clipPath>
</defs>
</svg>
